<?xml version="1.0" encoding="utf-8"?>
<!-- Generator: Adobe Illustrator 23.0.3, SVG Export Plug-In . SVG Version: 6.00 Build 0)  -->
<svg version="1.1" id="Layer_1" xmlns="http://www.w3.org/2000/svg" xmlns:xlink="http://www.w3.org/1999/xlink" x="0px" y="0px"
	 viewBox="0 0 100 100" style="enable-background:new 0 0 100 100;" xml:space="preserve">
<style type="text/css">
	.st0{fill:url(#SVGID_1_);}
	.st1{fill:url(#SVGID_2_);}
	.st2{fill:url(#SVGID_3_);}
	.st3{fill:url(#SVGID_4_);}
	.st4{fill:url(#SVGID_5_);}
	.st5{fill:url(#SVGID_6_);}
	.st6{fill:url(#SVGID_7_);}
	.st7{fill:url(#SVGID_8_);}
	.st8{fill:url(#SVGID_9_);}
	.st9{fill:url(#SVGID_10_);}
	.st10{fill:url(#SVGID_11_);}
	.st11{fill:url(#SVGID_12_);}
	.st12{fill:url(#SVGID_13_);}
	.st13{fill:url(#SVGID_14_);}
	.st14{fill:url(#SVGID_15_);}
	.st15{fill:url(#SVGID_16_);}
	.st16{fill:url(#SVGID_17_);}
	.st17{fill:url(#SVGID_18_);}
	.st18{fill:url(#SVGID_19_);}
	.st19{fill:url(#SVGID_20_);}
	.st20{fill:url(#SVGID_21_);}
	.st21{fill:url(#SVGID_22_);}
	.st22{fill:url(#SVGID_23_);}
	.st23{fill:url(#SVGID_24_);}
	.st24{fill:url(#SVGID_25_);}
	.st25{fill:url(#SVGID_26_);}
	.st26{fill:url(#SVGID_27_);}
	.st27{fill:url(#SVGID_28_);}
	.st28{fill:url(#SVGID_29_);}
	.st29{fill:url(#SVGID_30_);}
	.st30{fill:url(#SVGID_31_);}
	.st31{fill:url(#SVGID_32_);}
	.st32{fill:url(#SVGID_33_);}
	.st33{fill:url(#SVGID_34_);}
	.st34{fill:url(#SVGID_35_);}
	.st35{fill:url(#SVGID_36_);}
	.st36{fill:url(#SVGID_37_);}
	.st37{fill:url(#SVGID_38_);}
	.st38{fill:url(#SVGID_39_);}
	.st39{fill:url(#SVGID_40_);}
	.st40{fill:url(#SVGID_41_);}
	.st41{fill:url(#SVGID_42_);}
	.st42{fill:url(#SVGID_43_);}
	.st43{fill:url(#SVGID_44_);}
</style>
<g>
	<linearGradient id="SVGID_1_" gradientUnits="userSpaceOnUse" x1="81.1489" y1="77.7905" x2="81.1489" y2="66.7871">
		<stop  offset="1.821087e-07" style="stop-color:#393777"/>
		<stop  offset="1" style="stop-color:#CA5B9E"/>
	</linearGradient>
	<path class="st0" d="M76.68,66.79c0.6,0.01,1.12,0.34,1.42,0.98c1.58,3.42,4.23,5.61,7.75,6.83c1.1,0.38,1.57,1.21,1.27,2.18
		c-0.29,0.92-1.11,1.24-2.25,0.85c-4.37-1.51-7.67-4.24-9.6-8.5C74.74,67.98,75.43,66.82,76.68,66.79z"/>
	<g>
		<linearGradient id="SVGID_2_" gradientUnits="userSpaceOnUse" x1="50.2388" y1="63.1811" x2="50.2388" y2="22.3602">
			<stop  offset="1.821087e-07" style="stop-color:#393777"/>
			<stop  offset="1" style="stop-color:#CA5B9E"/>
		</linearGradient>
		<path class="st1" d="M50.24,22.38c14.01,0,28.02,0,42.03,0c3.18,0,4.66,1.49,4.66,4.66c0,9.24,0,18.48,0,27.72
			c0,2.86-1.5,4.36-4.36,4.37c-0.52,0-1.04,0-1.56,0.01c-0.17,0-0.4-0.04-0.48,0.17c-0.07,0.2,0.09,0.34,0.21,0.48
			c0.16,0.19,0.33,0.36,0.5,0.54c0.46,0.51,0.72,1.07,0.43,1.76c-0.31,0.73-0.9,1.07-1.66,1.08c-1.22,0.02-2.45,0.01-3.67,0.01
			c-25.39,0-50.78,0-76.18-0.01c-0.34,0-0.68,0.02-1-0.06c-1.32-0.3-1.76-1.67-0.91-2.7c0.3-0.36,0.99-0.66,0.77-1.12
			c-0.2-0.41-0.9-0.15-1.37-0.16c-2.53-0.07-4.07-1.64-4.07-4.2c0-9.36,0.06-18.72-0.04-28.08c-0.03-2.81,1.88-4.5,4.48-4.49
			C22.09,22.41,36.17,22.38,50.24,22.38z M50.28,47.69c14.13,0,28.27,0,42.4,0c1.23,0,1.23,0,1.23-1.19c0-3.98,0-7.95,0-11.93
			c0-2.6-0.01-5.2,0-7.8c0-0.83-0.31-1.26-1.2-1.22c-0.67,0.04-1.35,0.01-2.02,0.01c-27.53,0-55.07,0-82.6,0
			c-1.32,0-1.46,0.15-1.47,1.49c0,6.49,0.01,12.97-0.02,19.46c0,0.9,0.22,1.21,1.17,1.21C21.95,47.68,36.11,47.69,50.28,47.69z
			 M50.31,49.39c0,0,0-0.01,0-0.01c-10.8,0-21.59,0-32.39,0c-3.43,0-6.85,0.02-10.28-0.01c-0.73-0.01-1.06,0.19-1.03,0.98
			c0.05,1.5,0.03,3,0.02,4.5c0,0.75,0.31,1.14,1.1,1.12c0.86-0.02,1.71-0.03,2.57,0c0.76,0.03,1.04-0.26,0.98-1.03
			c-0.11-1.44,0.37-1.94,1.83-1.94c24.38,0,48.75,0,73.13,0c1.73,0,2.05,0.29,2.07,2c0.01,0.72,0.28,0.98,0.98,0.96
			c1.13-0.03,2.26-0.02,3.39,0c0.85,0.02,1.24-0.36,1.23-1.21c-0.02-1.38,0-2.75,0-4.13c0-1.22,0-1.23-1.21-1.23
			C78.57,49.39,64.44,49.39,50.31,49.39z M86.89,60c-0.71-1.26-1.28-2.34-1.58-3.53c-0.1-0.39-0.39-0.42-0.71-0.42
			c-0.76,0-1.53,0-2.29,0c-22.29,0-44.59,0-66.88-0.02c-0.73,0-1.13,0.17-1.27,0.93c-0.12,0.69-0.44,1.33-0.78,1.95
			C12.79,60,12.79,60,14.05,60c23.64,0,47.28,0,70.92,0C85.54,60,86.12,60,86.89,60z"/>
		<linearGradient id="SVGID_3_" gradientUnits="userSpaceOnUse" x1="61.5405" y1="77.7941" x2="61.5405" y2="66.7815">
			<stop  offset="1.821087e-07" style="stop-color:#393777"/>
			<stop  offset="1" style="stop-color:#CA5B9E"/>
		</linearGradient>
		<path class="st2" d="M57.06,66.78c0.63,0.02,1.13,0.37,1.43,1.01c1.61,3.43,4.3,5.63,7.84,6.86c1.06,0.37,1.47,1.17,1.16,2.14
			c-0.29,0.88-1.1,1.23-2.17,0.86c-4.37-1.49-7.67-4.22-9.63-8.45C55.13,68.01,55.82,66.8,57.06,66.78z"/>
		<linearGradient id="SVGID_4_" gradientUnits="userSpaceOnUse" x1="18.4583" y1="77.8307" x2="18.4583" y2="66.841">
			<stop  offset="1.821087e-07" style="stop-color:#393777"/>
			<stop  offset="1" style="stop-color:#CA5B9E"/>
		</linearGradient>
		<path class="st3" d="M24.52,68.39c-0.04,0.47-0.21,0.86-0.4,1.25c-1.99,4.04-5.24,6.6-9.43,8.06c-1.04,0.36-1.9-0.02-2.2-0.88
			c-0.32-0.91,0.14-1.74,1.2-2.12c3.54-1.24,6.22-3.45,7.82-6.89c0.35-0.75,0.98-1.1,1.8-0.92C24.1,67.07,24.47,67.64,24.52,68.39z"
			/>
		<linearGradient id="SVGID_5_" gradientUnits="userSpaceOnUse" x1="38.0614" y1="77.8475" x2="38.0614" y2="66.8221">
			<stop  offset="1.821087e-07" style="stop-color:#393777"/>
			<stop  offset="1" style="stop-color:#CA5B9E"/>
		</linearGradient>
		<path class="st4" d="M33.67,77.85c-0.79-0.1-1.42-0.35-1.6-1.18c-0.2-0.9,0.19-1.59,1.13-1.93c1.74-0.62,3.36-1.45,4.77-2.67
			c1.29-1.12,2.28-2.45,3.02-3.99c0.55-1.16,1.32-1.52,2.23-1.09c0.88,0.42,1.16,1.37,0.62,2.44c-2.03,4.1-5.29,6.8-9.59,8.27
			C34.05,77.79,33.84,77.81,33.67,77.85z"/>
		<linearGradient id="SVGID_6_" gradientUnits="userSpaceOnUse" x1="50.2685" y1="41.5429" x2="50.2685" y2="39.835">
			<stop  offset="1.821087e-07" style="stop-color:#393777"/>
			<stop  offset="1" style="stop-color:#CA5B9E"/>
		</linearGradient>
		<path class="st5" d="M50.27,41.54c-12.24,0-24.48,0-36.72,0c-0.24,0-0.49,0.01-0.73-0.01c-0.45-0.04-0.74-0.27-0.77-0.75
			c-0.02-0.47,0.22-0.77,0.67-0.84c0.48-0.07,0.97-0.09,1.46-0.09c9.85-0.01,19.7-0.01,29.56,0c14.32,0,28.64,0.01,42.96,0.01
			c0.37,0,0.74,0.01,1.09,0.07c0.44,0.08,0.71,0.36,0.69,0.83c-0.02,0.48-0.32,0.73-0.76,0.76c-0.61,0.04-1.22,0.03-1.83,0.03
			C74.01,41.54,62.14,41.54,50.27,41.54C50.27,41.54,50.27,41.54,50.27,41.54z"/>
		<linearGradient id="SVGID_7_" gradientUnits="userSpaceOnUse" x1="50.2707" y1="32.5778" x2="50.2707" y2="30.9434">
			<stop  offset="1.821087e-07" style="stop-color:#393777"/>
			<stop  offset="1" style="stop-color:#CA5B9E"/>
		</linearGradient>
		<path class="st6" d="M50.28,32.55c-12.2,0-24.41,0-36.61-0.01c-0.64,0-1.61,0.29-1.58-0.82c0.03-1.04,0.96-0.74,1.57-0.74
			c24.41-0.01,48.82-0.01,73.22,0c0.64,0,1.61-0.29,1.58,0.82c-0.03,1.02-0.95,0.74-1.57,0.74C74.69,32.55,62.48,32.55,50.28,32.55z
			"/>
	</g>
</g>
</svg>
