<?xml version="1.0" encoding="utf-8"?>
<!-- Generator: Adobe Illustrator 23.0.3, SVG Export Plug-In . SVG Version: 6.00 Build 0)  -->
<svg version="1.1" id="Layer_1" xmlns="http://www.w3.org/2000/svg" xmlns:xlink="http://www.w3.org/1999/xlink" x="0px" y="0px"
	 viewBox="0 0 100 100" style="enable-background:new 0 0 100 100;" xml:space="preserve">
<style type="text/css">
	.st0{fill:url(#SVGID_1_);}
	.st1{fill:url(#SVGID_2_);}
	.st2{fill:url(#SVGID_3_);}
	.st3{fill:url(#SVGID_4_);}
	.st4{fill:url(#SVGID_5_);}
	.st5{fill:url(#SVGID_6_);}
	.st6{fill:url(#SVGID_7_);}
	.st7{fill:url(#SVGID_8_);}
	.st8{fill:url(#SVGID_9_);}
	.st9{fill:url(#SVGID_10_);}
	.st10{fill:url(#SVGID_11_);}
	.st11{fill:url(#SVGID_12_);}
	.st12{fill:url(#SVGID_13_);}
	.st13{fill:url(#SVGID_14_);}
	.st14{fill:url(#SVGID_15_);}
	.st15{fill:url(#SVGID_16_);}
	.st16{fill:url(#SVGID_17_);}
	.st17{fill:url(#SVGID_18_);}
	.st18{fill:url(#SVGID_19_);}
	.st19{fill:url(#SVGID_20_);}
	.st20{fill:url(#SVGID_21_);}
	.st21{fill:url(#SVGID_22_);}
	.st22{fill:url(#SVGID_23_);}
	.st23{fill:url(#SVGID_24_);}
	.st24{fill:url(#SVGID_25_);}
	.st25{fill:url(#SVGID_26_);}
	.st26{fill:url(#SVGID_27_);}
	.st27{fill:url(#SVGID_28_);}
	.st28{fill:url(#SVGID_29_);}
	.st29{fill:url(#SVGID_30_);}
	.st30{fill:url(#SVGID_31_);}
	.st31{fill:url(#SVGID_32_);}
	.st32{fill:url(#SVGID_33_);}
	.st33{fill:url(#SVGID_34_);}
	.st34{fill:url(#SVGID_35_);}
	.st35{fill:url(#SVGID_36_);}
	.st36{fill:url(#SVGID_37_);}
	.st37{fill:url(#SVGID_38_);}
	.st38{fill:url(#SVGID_39_);}
	.st39{fill:url(#SVGID_40_);}
	.st40{fill:url(#SVGID_41_);}
	.st41{fill:url(#SVGID_42_);}
	.st42{fill:url(#SVGID_43_);}
	.st43{fill:url(#SVGID_44_);}
</style>
<g>
	<linearGradient id="SVGID_1_" gradientUnits="userSpaceOnUse" x1="43.189" y1="96" x2="43.189" y2="11.9111">
		<stop  offset="1.821087e-07" style="stop-color:#393777"/>
		<stop  offset="1" style="stop-color:#CA5B9E"/>
	</linearGradient>
	<path class="st0" d="M30.67,95.98c-4.35,0-8.69-0.06-13.04,0.02c-2.36,0.04-3.3-1.02-3.34-3.31c-0.05-2.8,0.31-5.35,2.88-7.05
		c1.11-0.73,1.22-1.97,1.4-3.1c0.85-5.36,1.6-10.74,2.49-16.09c0.2-1.19-0.32-1.85-1.01-2.63c-3.54-4.02-3.68-8.18-0.26-12.41
		c0.88-1.09,0.63-1.85,0.16-2.92c-5.33-12.04-3.83-23.28,4.11-33.69c2.87-3.77,3.72-3.77,6.99-0.5c5.27,5.25,10.51,10.52,15.8,15.75
		c0.67,0.67,1.25,1.97,2.34,1.55c1.24-0.48,2.16-1.54,2.21-3.08c0.03-0.86,0.37-1.63,0.95-2.27c1.06-1.17,2.37-1.53,3.87-1.04
		c1.47,0.48,2.4,1.51,2.59,3.07c0.21,1.7-0.59,2.93-2.01,3.72c-0.64,0.36-1.43,0.43-2.14,0.66c-2.5,0.8-2.9,2.3-1.09,4.12
		c5.61,5.62,11.23,11.22,16.83,16.85c2.25,2.26,2.3,3.05-0.1,5.06c-10.26,8.6-21.63,10.58-34.13,5.54
		c-0.73-0.29-1.55-1.11-2.27-0.36c-0.58,0.61,0.1,1.42,0.38,2.08c2.49,5.84,5.03,11.65,7.5,17.5c0.42,1,1.17,1.56,1.98,2.15
		c2.63,1.94,3.78,5.67,2.74,8.73c-0.5,1.49-1.72,1.64-3.04,1.64C39.2,95.97,34.93,95.98,30.67,95.98z M47.46,62.77
		c6.01,0.52,13.34-1.69,18.12-5.33c1.29-0.98,1.29-1.71,0.16-2.75c-2.03-1.85-4.13-3.65-6-5.65c-9.9-10.63-20.49-20.57-30.61-30.97
		c-1.14-1.18-1.77-1.04-2.68,0.23c-2.38,3.3-4.07,6.9-4.89,10.87C18,46.52,30.89,62.29,47.46,62.77z M29.87,84.81
		c0,0.03,0,0.06,0,0.09c1.92,0,3.83,0,5.75,0c1.5,0,2.2-0.49,1.49-2.12c-2.2-5.04-4.41-10.08-6.49-15.18
		c-0.93-2.28-2.65-1.03-4.05-1.17c-1.43-0.14-1.53,0.97-1.69,1.98c-0.76,4.86-1.51,9.72-2.29,14.57c-0.24,1.47,0.35,1.93,1.78,1.85
		C26.2,84.73,28.04,84.81,29.87,84.81z M30.13,92.09c0-0.01,0-0.02,0-0.03c3.09,0,6.18,0.03,9.27-0.02
		c1.17-0.02,2.88,0.45,2.89-1.44c0.01-1.98-1.76-1.63-3.03-1.65c-3.59-0.05-7.18-0.03-10.77-0.03c-2.5,0-5.01,0.01-7.51,0.02
		c-1.3,0.01-2.42,0.36-2.37,1.91c0.04,1.56,1.35,1.19,2.27,1.21C23.95,92.11,27.04,92.09,30.13,92.09z M21.51,57.35
		c-0.06,3.68,3.87,6.28,6.96,4.64c1.09-0.58,1.29-1.19,0.36-2.1c-1.67-1.64-3.35-3.26-4.94-4.97c-0.87-0.94-1.36-0.66-1.87,0.27
		C21.65,55.86,21.49,56.58,21.51,57.35z"/>
	<linearGradient id="SVGID_2_" gradientUnits="userSpaceOnUse" x1="63.6959" y1="36.5991" x2="63.6959" y2="3.8205">
		<stop  offset="1.821087e-07" style="stop-color:#393777"/>
		<stop  offset="1" style="stop-color:#CA5B9E"/>
	</linearGradient>
	<path class="st1" d="M54.82,3.86c16.06,0.06,27.84,14.46,24.79,29.72c-0.07,0.33-0.14,0.65-0.25,0.97
		c-0.43,1.29-1.11,2.4-2.68,1.95c-1.42-0.4-1.56-1.63-1.26-2.87c0.66-2.72,0.76-5.47,0.29-8.21C73.69,13.85,63.83,6.78,51.75,8.19
		c-0.5,0.06-0.99,0.13-1.48,0.23c-1.4,0.29-2.62,0.03-2.91-1.53c-0.3-1.61,0.9-2.19,2.23-2.46C51.46,4.06,53.35,3.7,54.82,3.86z"/>
	<linearGradient id="SVGID_3_" gradientUnits="userSpaceOnUse" x1="61.0602" y1="34.72" x2="61.0602" y2="10.8846">
		<stop  offset="1.821087e-07" style="stop-color:#393777"/>
		<stop  offset="1" style="stop-color:#CA5B9E"/>
	</linearGradient>
	<path class="st2" d="M55.04,10.9c11.36,0.07,19.9,10.52,17.65,21.21c-0.31,1.47-0.76,2.96-2.67,2.55
		c-1.76-0.38-1.53-1.79-1.32-3.22c1.57-10.32-6.73-18.23-16.92-16.01c-1.63,0.36-2.19-0.33-2.59-1.46
		c-0.45-1.28,0.33-2.06,1.47-2.47C52.18,10.94,53.76,10.85,55.04,10.9z"/>
	<linearGradient id="SVGID_4_" gradientUnits="userSpaceOnUse" x1="58.4866" y1="32.9488" x2="58.4866" y2="17.9234">
		<stop  offset="1.821087e-07" style="stop-color:#393777"/>
		<stop  offset="1" style="stop-color:#CA5B9E"/>
	</linearGradient>
	<path class="st3" d="M61.84,29.46c0.26-4.19-2.53-7.25-6.7-7.35c-0.5-0.01-1,0.03-1.5,0.06c-1.27,0.07-2.45-0.15-2.65-1.63
		c-0.22-1.61,0.97-2.21,2.28-2.43c4.05-0.69,7.39,0.72,10.1,3.68c2.06,2.25,3,4.93,2.52,8c-0.23,1.46-0.32,3.34-2.4,3.16
		C61.37,32.76,61.62,31,61.84,29.46z"/>
</g>
</svg>
