<?xml version="1.0" encoding="utf-8"?>
<!-- Generator: Adobe Illustrator 23.0.3, SVG Export Plug-In . SVG Version: 6.00 Build 0)  -->
<svg version="1.1" id="Layer_1" xmlns="http://www.w3.org/2000/svg" xmlns:xlink="http://www.w3.org/1999/xlink" x="0px" y="0px"
	 viewBox="0 0 100 100" style="enable-background:new 0 0 100 100;" xml:space="preserve">
<style type="text/css">
	.st0{fill:url(#SVGID_1_);}
	.st1{fill:url(#SVGID_2_);}
	.st2{fill:url(#SVGID_3_);}
	.st3{fill:url(#SVGID_4_);}
	.st4{fill:url(#SVGID_5_);}
	.st5{fill:url(#SVGID_6_);}
	.st6{fill:url(#SVGID_7_);}
	.st7{fill:url(#SVGID_8_);}
	.st8{fill:url(#SVGID_9_);}
	.st9{fill:url(#SVGID_10_);}
	.st10{fill:url(#SVGID_11_);}
	.st11{fill:url(#SVGID_12_);}
	.st12{fill:url(#SVGID_13_);}
	.st13{fill:url(#SVGID_14_);}
	.st14{fill:url(#SVGID_15_);}
	.st15{fill:url(#SVGID_16_);}
	.st16{fill:url(#SVGID_17_);}
	.st17{fill:url(#SVGID_18_);}
	.st18{fill:url(#SVGID_19_);}
	.st19{fill:url(#SVGID_20_);}
	.st20{fill:url(#SVGID_21_);}
	.st21{fill:url(#SVGID_22_);}
	.st22{fill:url(#SVGID_23_);}
	.st23{fill:url(#SVGID_24_);}
	.st24{fill:url(#SVGID_25_);}
	.st25{fill:url(#SVGID_26_);}
	.st26{fill:url(#SVGID_27_);}
	.st27{fill:url(#SVGID_28_);}
	.st28{fill:url(#SVGID_29_);}
	.st29{fill:url(#SVGID_30_);}
	.st30{fill:url(#SVGID_31_);}
	.st31{fill:url(#SVGID_32_);}
	.st32{fill:url(#SVGID_33_);}
	.st33{fill:url(#SVGID_34_);}
	.st34{fill:url(#SVGID_35_);}
	.st35{fill:url(#SVGID_36_);}
	.st36{fill:url(#SVGID_37_);}
	.st37{fill:url(#SVGID_38_);}
	.st38{fill:url(#SVGID_39_);}
	.st39{fill:url(#SVGID_40_);}
	.st40{fill:url(#SVGID_41_);}
	.st41{fill:url(#SVGID_42_);}
	.st42{fill:url(#SVGID_43_);}
	.st43{fill:url(#SVGID_44_);}
</style>
<g>
	<linearGradient id="SVGID_1_" gradientUnits="userSpaceOnUse" x1="50.1203" y1="50.5966" x2="50.1203" y2="16.8817">
		<stop  offset="1.821087e-07" style="stop-color:#393777"/>
		<stop  offset="1" style="stop-color:#CA5B9E"/>
	</linearGradient>
	<path class="st0" d="M50.07,50.53c-14.74,0-29.47,0-44.21-0.01c-0.55,0-1.37,0.27-1.58-0.24c-0.27-0.65,0.59-0.96,1.02-1.33
		c3.91-3.37,7.86-6.69,11.77-10.06c1.51-1.3,3.19-1.91,5.2-1.87c3.46,0.07,6.92,0,10.38,0.03c0.96,0.01,1.29-0.18,1.16-1.29
		c-1.16-9.8,5.58-18,15.39-18.82c8.35-0.7,16.54,6.14,17.39,14.47c0.15,1.42,0.25,2.84-0.04,4.24c-0.25,1.22,0.28,1.44,1.35,1.42
		c3.41-0.05,6.82,0.01,10.23-0.02c1.9-0.02,3.47,0.62,4.91,1.87c4,3.48,8.07,6.88,12.11,10.32c0.34,0.29,1,0.51,0.82,1.02
		c-0.18,0.53-0.84,0.28-1.28,0.28C79.83,50.54,64.95,50.53,50.07,50.53z M91.9,48.68c-3.56-3.03-6.86-5.8-10.12-8.61
		c-1.14-0.98-2.44-1.42-3.91-1.42c-18.58,0-37.16,0-55.74,0c-1.48,0-2.76,0.5-3.89,1.48c-1.82,1.59-3.68,3.13-5.52,4.7
		c-1.41,1.2-2.8,2.43-4.44,3.85C36.3,48.68,63.91,48.68,91.9,48.68z M46.01,36.8c-0.29-0.65-0.51-1.06-0.66-1.5
		c-0.63-1.83-0.44-3.55,0.81-5.08c1.71-2.07,4.42-2.55,6.65-1.22c2.28,1.36,3.19,3.99,2.11,6.53c-0.43,1.02-0.32,1.31,0.81,1.29
		c2.56-0.05,5.11-0.04,7.67-0.01c0.86,0.01,1.28-0.28,1.43-1.16c0.33-1.95,0.23-3.88-0.28-5.77c-1.49-5.53-5.02-9.21-10.53-10.69
		c-5.51-1.48-10.49-0.11-14.46,3.97c-3.33,3.43-4.76,7.66-4.01,12.5c0.11,0.73,0.39,1.13,1.15,1.13
		C39.72,36.8,42.74,36.8,46.01,36.8z M53.63,33.47c0-1.98-1.4-3.38-3.4-3.4c-1.96-0.03-3.58,1.55-3.55,3.45
		c0.03,1.85,1.61,3.45,3.45,3.47C52.06,37.02,53.63,35.45,53.63,33.47z"/>
	<linearGradient id="SVGID_2_" gradientUnits="userSpaceOnUse" x1="50.0011" y1="66.2367" x2="50.0011" y2="51.023">
		<stop  offset="1.821087e-07" style="stop-color:#393777"/>
		<stop  offset="1" style="stop-color:#CA5B9E"/>
	</linearGradient>
	<path class="st1" d="M50,66.24c-14.64,0-29.29,0-43.93,0c-3.47,0-5.06-1.57-5.06-5c0-1.85-0.02-3.7,0-5.54
		c0.04-2.79,1.71-4.51,4.49-4.65c0.43-0.02,0.85-0.01,1.28-0.01c28.86,0,57.72,0,86.58,0c4.13,0,5.63,1.51,5.63,5.66
		c0,1.66,0.01,3.32,0,4.98c-0.03,2.88-1.74,4.57-4.63,4.57C79.57,66.24,64.79,66.24,50,66.24z M50.14,52.83c-14.55,0-29.1,0-43.65,0
		c-3.12,0-3.69,0.58-3.69,3.76c0,1.42,0,2.84,0,4.27c0,3.03,0.74,3.78,3.76,3.78c28.86,0,57.73,0,86.59,0
		c0.43,0,0.85,0.01,1.28-0.02c1.87-0.15,2.73-1.04,2.76-2.91c0.03-1.75,0.01-3.51,0.01-5.26c-0.01-2.97-0.63-3.61-3.56-3.61
		C79.15,52.83,64.65,52.83,50.14,52.83z"/>
	<linearGradient id="SVGID_3_" gradientUnits="userSpaceOnUse" x1="50.1561" y1="36.0114" x2="50.1561" y2="30.9788">
		<stop  offset="1.821087e-07" style="stop-color:#393777"/>
		<stop  offset="1" style="stop-color:#CA5B9E"/>
	</linearGradient>
	<path class="st2" d="M50.16,30.98c1.37-0.01,2.49,1.14,2.47,2.53c-0.01,1.4-1.15,2.53-2.52,2.5c-1.25-0.02-2.41-1.2-2.45-2.48
		C47.63,32.21,48.82,30.99,50.16,30.98z"/>
	<linearGradient id="SVGID_4_" gradientUnits="userSpaceOnUse" x1="29.5143" y1="63.1621" x2="29.5143" y2="54.1359">
		<stop  offset="1.821087e-07" style="stop-color:#393777"/>
		<stop  offset="1" style="stop-color:#CA5B9E"/>
	</linearGradient>
	<path class="st3" d="M29.49,63.16c-7.67,0-15.34,0-23.02,0c-1.58,0-2.41-0.69-2.51-2.26c-0.09-1.37-0.08-2.75-0.02-4.12
		c0.09-1.99,0.81-2.64,2.88-2.64c8.1-0.01,16.2,0,24.29,0c6.96,0,13.92,0,20.88,0c2.45,0,3.08,0.65,3.11,3.14
		c0.01,1.09,0.03,2.18-0.01,3.27c-0.07,1.92-0.82,2.61-2.74,2.61C44.74,63.15,37.11,63.15,29.49,63.16
		C29.49,63.16,29.49,63.16,29.49,63.16z M29.52,55.94c-6.82,0-13.64-0.02-20.46,0.01c-3.9,0.02-3.3-0.52-3.34,3.42
		c-0.02,2.15,0,2.15,2.22,2.15c13.92,0,27.85,0.02,41.77-0.01c4.22-0.01,3.58,0.61,3.63-3.57c0.02-1.99,0-2-2.07-2
		C44.01,55.93,36.76,55.94,29.52,55.94z"/>
	<linearGradient id="SVGID_5_" gradientUnits="userSpaceOnUse" x1="74.5329" y1="60.9674" x2="74.5329" y2="56.3262">
		<stop  offset="1.821087e-07" style="stop-color:#393777"/>
		<stop  offset="1" style="stop-color:#CA5B9E"/>
	</linearGradient>
	<path class="st4" d="M72.41,58.85c0-3.02,0.01-3.04,2.46-1.6c0.67,0.39,1.81,0.58,1.82,1.37c0.01,0.78-1.11,1-1.78,1.39
		c-0.67,0.39-1.37,1.23-2.1,0.86C72,60.47,72.61,59.41,72.41,58.85z"/>
	<linearGradient id="SVGID_6_" gradientUnits="userSpaceOnUse" x1="82.7308" y1="61.3634" x2="82.7308" y2="56.1392">
		<stop  offset="1.821087e-07" style="stop-color:#393777"/>
		<stop  offset="1" style="stop-color:#CA5B9E"/>
	</linearGradient>
	<path class="st5" d="M83.58,58.85c0,0.61,0.02,1.23-0.01,1.84c-0.02,0.45-0.33,0.65-0.77,0.67c-0.49,0.02-0.89-0.14-0.91-0.66
		c-0.04-1.27-0.04-2.55-0.01-3.82c0.01-0.51,0.34-0.74,0.85-0.73c0.5,0.01,0.83,0.21,0.85,0.73C83.61,57.53,83.59,58.19,83.58,58.85
		C83.59,58.85,83.58,58.85,83.58,58.85z"/>
	<linearGradient id="SVGID_7_" gradientUnits="userSpaceOnUse" x1="92.8278" y1="60.3492" x2="92.8278" y2="57.1264">
		<stop  offset="1.821087e-07" style="stop-color:#393777"/>
		<stop  offset="1" style="stop-color:#CA5B9E"/>
	</linearGradient>
	<path class="st6" d="M94.44,58.78c-0.11,0.96-0.65,1.58-1.64,1.57c-1-0.01-1.57-0.66-1.58-1.63c-0.01-1.01,0.66-1.6,1.61-1.59
		C93.79,57.14,94.37,57.74,94.44,58.78z"/>
	<linearGradient id="SVGID_8_" gradientUnits="userSpaceOnUse" x1="85.1425" y1="61.3503" x2="85.1425" y2="56.1245">
		<stop  offset="1.821087e-07" style="stop-color:#393777"/>
		<stop  offset="1" style="stop-color:#CA5B9E"/>
	</linearGradient>
	<path class="st7" d="M85.92,58.63c0,0.61,0.01,1.22,0,1.84c-0.01,0.55-0.21,0.9-0.84,0.88c-0.55-0.02-0.73-0.37-0.73-0.84
		c-0.01-1.18-0.01-2.36,0-3.53c0-0.57,0.28-0.85,0.87-0.85c0.69,0,0.73,0.45,0.73,0.95c0,0.52,0,1.04,0,1.55
		C85.93,58.63,85.93,58.63,85.92,58.63z"/>
</g>
</svg>
