<?xml version="1.0" encoding="utf-8"?>
<!-- Generator: Adobe Illustrator 23.0.3, SVG Export Plug-In . SVG Version: 6.00 Build 0)  -->
<svg version="1.1" id="Layer_1" xmlns="http://www.w3.org/2000/svg" xmlns:xlink="http://www.w3.org/1999/xlink" x="0px" y="0px"
	 viewBox="0 0 100 100" style="enable-background:new 0 0 100 100;" xml:space="preserve">
<style type="text/css">
	.st0{fill:url(#SVGID_1_);}
	.st1{fill:url(#SVGID_2_);}
	.st2{fill:url(#SVGID_3_);}
	.st3{fill:url(#SVGID_4_);}
	.st4{fill:url(#SVGID_5_);}
	.st5{fill:url(#SVGID_6_);}
	.st6{fill:url(#SVGID_7_);}
	.st7{fill:url(#SVGID_8_);}
	.st8{fill:url(#SVGID_9_);}
	.st9{fill:url(#SVGID_10_);}
	.st10{fill:url(#SVGID_11_);}
	.st11{fill:url(#SVGID_12_);}
	.st12{fill:url(#SVGID_13_);}
	.st13{fill:url(#SVGID_14_);}
	.st14{fill:url(#SVGID_15_);}
	.st15{fill:url(#SVGID_16_);}
	.st16{fill:url(#SVGID_17_);}
	.st17{fill:url(#SVGID_18_);}
	.st18{fill:url(#SVGID_19_);}
	.st19{fill:url(#SVGID_20_);}
	.st20{fill:url(#SVGID_21_);}
	.st21{fill:url(#SVGID_22_);}
	.st22{fill:url(#SVGID_23_);}
	.st23{fill:url(#SVGID_24_);}
	.st24{fill:url(#SVGID_25_);}
	.st25{fill:url(#SVGID_26_);}
	.st26{fill:url(#SVGID_27_);}
	.st27{fill:url(#SVGID_28_);}
	.st28{fill:url(#SVGID_29_);}
	.st29{fill:url(#SVGID_30_);}
	.st30{fill:url(#SVGID_31_);}
	.st31{fill:url(#SVGID_32_);}
	.st32{fill:url(#SVGID_33_);}
	.st33{fill:url(#SVGID_34_);}
	.st34{fill:url(#SVGID_35_);}
	.st35{fill:url(#SVGID_36_);}
	.st36{fill:url(#SVGID_37_);}
	.st37{fill:url(#SVGID_38_);}
	.st38{fill:url(#SVGID_39_);}
	.st39{fill:url(#SVGID_40_);}
	.st40{fill:url(#SVGID_41_);}
	.st41{fill:url(#SVGID_42_);}
	.st42{fill:url(#SVGID_43_);}
	.st43{fill:url(#SVGID_44_);}
</style>
<g>
	<linearGradient id="SVGID_1_" gradientUnits="userSpaceOnUse" x1="50.1962" y1="52.1058" x2="50.1962" y2="22.2877">
		<stop  offset="1.821087e-07" style="stop-color:#393777"/>
		<stop  offset="1" style="stop-color:#CA5B9E"/>
	</linearGradient>
	<path class="st0" d="M50.26,22.29c8.56,0,17.11,0,25.67,0c1.53,0,1.97,0.44,1.97,1.96c0,8.56-0.01,17.11-0.01,25.67
		c0,1.7-0.48,2.19-2.2,2.19c-16.92,0-33.85,0-50.77,0c-1.96,0-2.41-0.43-2.41-2.4c-0.01-8.43-0.01-16.86,0-25.29
		c0-1.66,0.49-2.11,2.17-2.11c8.53,0,17.05,0,25.58,0C50.26,22.3,50.26,22.29,50.26,22.29z M50.07,49.2
		C50.07,49.2,50.07,49.2,50.07,49.2c7.86,0,15.72,0,23.58,0c1.33,0,1.34,0,1.34-1.29c0-7.2-0.01-14.4,0.01-21.6
		c0-0.89-0.33-1.13-1.17-1.13c-15.79,0.02-31.57,0.02-47.36,0c-0.82,0-1.09,0.25-1.09,1.08c0.03,7.26,0.03,14.52-0.01,21.78
		c0,0.94,0.31,1.16,1.2,1.15C34.41,49.18,42.24,49.2,50.07,49.2z"/>
	<linearGradient id="SVGID_2_" gradientUnits="userSpaceOnUse" x1="88.3865" y1="79.7939" x2="88.3865" y2="22.2919">
		<stop  offset="1.821087e-07" style="stop-color:#393777"/>
		<stop  offset="1" style="stop-color:#CA5B9E"/>
	</linearGradient>
	<path class="st1" d="M94.57,50.93c0,5.01,0,10.02,0,15.03c0,3.97,0,7.94,0,11.91c0,1.39-0.49,1.89-1.87,1.9
		c-2.84,0.02-5.68,0.01-8.52,0c-1.56,0-2.04-0.49-2.04-2.04c0-13.17,0-26.33,0-39.5c0-4.64,0-9.28,0-13.92
		c0-1.6,0.42-2.02,2.01-2.02c2.87,0,5.75-0.01,8.62-0.01c1.39,0,1.82,0.43,1.82,1.79c0.02,4.51,0.05,9.01,0.07,13.52
		c0.01,4.44,0,8.89,0,13.33C94.62,50.93,94.6,50.93,94.57,50.93z M85.05,33.79c0,3,0,5.99,0,9.02c1.21-2.22,2.26-2.9,3.91-2.53
		c1.56,0.35,2.62,1.56,2.74,3.11c0.09,1.24-0.97,2.75-2.25,3.22c-0.93,0.34-1.79,0.13-2.64-0.28c-0.85-0.41-1.29-1.16-1.76-2.11
		c0,3.83,0,7.46,0,11.09c0,4.7,0.03,9.41-0.02,14.11c-0.01,0.97,0.31,1.26,1.26,1.21c1.42-0.07,2.84-0.02,4.26-0.02
		c1.25,0,1.25,0,1.25-1.25c0-10.04,0-20.07,0-30.11c0-4.32,0-8.65,0-12.97c0-0.51,0.06-1.06-0.71-1.06c-1.77,0-3.53,0-5.3,0
		c-0.45,0-0.72,0.19-0.72,0.67c0,2.15,0,4.3,0,6.7c0.76-2.19,2.03-3.1,3.72-2.87c1.54,0.21,2.85,1.61,2.94,3.15
		c0.08,1.37-1.22,3.01-2.63,3.33C87.8,36.47,85.77,35.78,85.05,33.79z M88.51,73.39c-0.35,0-0.69-0.01-1.04,0
		c-2.79,0.07-2.41-0.59-2.44,2.65c-0.01,0.61,0.25,0.84,0.85,0.83c1.7-0.02,3.4-0.02,5.11,0.01c0.63,0.01,0.83-0.27,0.8-0.86
		c-0.03-0.6-0.04-1.2,0-1.8c0.03-0.61-0.19-0.87-0.81-0.84C90.15,73.42,89.33,73.39,88.51,73.39z"/>
	<linearGradient id="SVGID_3_" gradientUnits="userSpaceOnUse" x1="11.6499" y1="79.7924" x2="11.6499" y2="22.2916">
		<stop  offset="1.821087e-07" style="stop-color:#393777"/>
		<stop  offset="1" style="stop-color:#CA5B9E"/>
	</linearGradient>
	<path class="st2" d="M5.39,50.97c0-8.78,0-17.55,0-26.33c0-2,0.35-2.35,2.39-2.35c2.75,0,5.49,0,8.24,0c1.42,0,1.83,0.44,1.83,1.88
		c0.02,4.76,0.06,9.52,0.06,14.28c0,2.9-0.06,5.8-0.06,8.7c0,3.4,0.06,6.81,0.06,10.21c0,2.87-0.06,5.73-0.06,8.6
		c0,3.43,0.04,6.87,0.05,10.3c0,0.72-0.03,1.45-0.08,2.17c-0.07,0.88-0.66,1.32-1.46,1.33c-3.16,0.04-6.31,0.05-9.47,0.01
		c-1.03-0.01-1.5-0.68-1.5-1.9c-0.01-3.88,0-7.77,0-11.65C5.39,61.13,5.39,56.05,5.39,50.97z M8.32,43.95
		c0.88-2.09,2.11-3.01,3.53-2.81c1.71,0.24,2.89,1.41,3.1,3.09c0.16,1.24-0.92,2.83-2.24,3.31c-0.93,0.34-1.79,0.13-2.65-0.28
		c-0.85-0.41-1.3-1.16-1.77-2.15c0,8.34,0.01,16.45-0.01,24.57c0,0.72,0.3,0.93,0.97,0.92c1.51-0.03,3.03-0.01,4.55-0.01
		c1.24,0,1.24,0,1.24-1.25c0-8.33,0-16.67,0-25c0-6.03,0-12.06,0-18.09c0-0.51,0.09-1.06-0.7-1.05c-1.77,0.01-3.54,0-5.3,0.01
		c-0.45,0-0.73,0.2-0.73,0.68c0,2.46,0,4.92,0,7.38c0.73-1.89,1.96-2.8,3.63-2.62c1.55,0.17,2.84,1.48,3.02,3.08
		c0.14,1.26-1.03,2.9-2.37,3.33c-0.9,0.29-1.74,0.11-2.55-0.32c-0.83-0.45-1.36-1.15-1.73-2.01C8.32,37.72,8.32,40.72,8.32,43.95z
		 M11.7,76.87c0.85,0,1.7-0.02,2.56,0.01c0.55,0.01,0.83-0.17,0.8-0.76c-0.03-0.63-0.03-1.26,0-1.89c0.03-0.61-0.2-0.85-0.82-0.84
		c-1.17,0.03-2.34-0.02-3.5,0.01c-2.86,0.07-2.36-0.55-2.43,2.55c0,0.03,0,0.06,0,0.09c-0.04,0.6,0.23,0.86,0.84,0.84
		C9.99,76.85,10.84,76.87,11.7,76.87z"/>
	<linearGradient id="SVGID_4_" gradientUnits="userSpaceOnUse" x1="50.194" y1="70.9184" x2="50.194" y2="53.3642">
		<stop  offset="1.821087e-07" style="stop-color:#393777"/>
		<stop  offset="1" style="stop-color:#CA5B9E"/>
	</linearGradient>
	<path class="st3" d="M50.16,70.91c-8.52,0-17.05,0-25.57,0c-1.57,0-2.07-0.45-2.08-2.01c-0.02-4.51-0.02-9.03,0-13.54
		c0.01-1.49,0.56-1.98,2.13-1.98c16.89,0,33.78-0.01,50.67-0.01c0.38,0,0.76-0.03,1.14,0c0.85,0.06,1.43,0.62,1.43,1.46
		c0.01,4.86,0.02,9.72-0.01,14.58c-0.01,1.07-0.6,1.5-1.86,1.5c-5.05,0-10.1,0-15.15,0C57.29,70.92,53.73,70.92,50.16,70.91
		C50.16,70.92,50.16,70.92,50.16,70.91z M50.06,68.01C50.06,68.01,50.06,68.01,50.06,68.01c7.86,0.01,15.71,0.01,23.57,0.01
		c1.35,0,1.36-0.01,1.36-1.39c0-3.03,0-6.06-0.01-9.09c0-1.23-0.02-1.24-1.29-1.24c-1.96,0-3.91,0-5.87,0
		c-13.76,0-27.52,0.01-41.27-0.02c-0.94,0-1.17,0.31-1.15,1.19c0.05,3.09,0.01,6.18,0.01,9.28c0,1.23,0,1.24,1.27,1.24
		C34.47,68.01,42.27,68.01,50.06,68.01z"/>
	<linearGradient id="SVGID_5_" gradientUnits="userSpaceOnUse" x1="50.233" y1="79.8006" x2="50.233" y2="72.1281">
		<stop  offset="1.821087e-07" style="stop-color:#393777"/>
		<stop  offset="1" style="stop-color:#CA5B9E"/>
	</linearGradient>
	<path class="st4" d="M50.25,72.15c8.11,0,16.23,0,24.34,0c1.44,0,2.68,0.46,3.51,1.7c0.84,1.25,0.99,2.57,0.2,3.92
		c-0.83,1.42-2.12,2.03-3.71,2.03c-4.96,0.01-9.91,0.01-14.87,0.01c-11.18,0-22.35,0-33.53,0c-1.31,0-2.53-0.23-3.45-1.23
		c-1.05-1.14-1.38-2.49-0.81-3.95c0.65-1.66,2-2.42,3.71-2.46c2.65-0.06,5.3-0.02,7.96-0.02C39.14,72.14,44.7,72.14,50.25,72.15
		C50.25,72.14,50.25,72.14,50.25,72.15z M50.27,76.87C50.27,76.87,50.27,76.87,50.27,76.87c8.01-0.01,16.03-0.01,24.04-0.01
		c0.28,0,0.57,0.01,0.85-0.04c0.46-0.08,0.72-0.37,0.7-0.86c-0.02-0.46-0.22-0.8-0.71-0.87c-0.37-0.05-0.76-0.04-1.13-0.04
		c-15.94,0-31.87,0-47.81,0c-0.72,0-1.66-0.13-1.65,0.9c0.01,1.02,0.94,0.9,1.66,0.9C34.24,76.88,42.25,76.87,50.27,76.87z"/>
	<linearGradient id="SVGID_6_" gradientUnits="userSpaceOnUse" x1="35.8631" y1="67.874" x2="35.8631" y2="56.5754">
		<stop  offset="1.821087e-07" style="stop-color:#393777"/>
		<stop  offset="1" style="stop-color:#CA5B9E"/>
	</linearGradient>
	<path class="st5" d="M35.96,56.58c3.15,0.02,5.58,2.52,5.55,5.72c-0.03,3.17-2.51,5.59-5.72,5.58c-3.08-0.01-5.6-2.61-5.58-5.75
		C30.24,59,32.77,56.56,35.96,56.58z M35.88,64.97c1.59-0.02,2.87-1.28,2.84-2.81c-0.03-1.45-1.38-2.78-2.83-2.78
		c-1.55,0-2.78,1.27-2.77,2.88C33.13,63.84,34.29,64.98,35.88,64.97z"/>
	<linearGradient id="SVGID_7_" gradientUnits="userSpaceOnUse" x1="63.5231" y1="67.8738" x2="63.5231" y2="56.5759">
		<stop  offset="1.821087e-07" style="stop-color:#393777"/>
		<stop  offset="1" style="stop-color:#CA5B9E"/>
	</linearGradient>
	<path class="st6" d="M63.59,56.58c3.1,0,5.59,2.54,5.58,5.71c-0.01,2.99-2.58,5.58-5.55,5.58c-3.23,0-5.76-2.48-5.76-5.65
		C57.87,59.01,60.33,56.58,63.59,56.58z M66.25,62.2c-0.01-1.59-1.16-2.8-2.7-2.83c-1.5-0.02-2.86,1.32-2.87,2.83
		c-0.01,1.55,1.26,2.77,2.88,2.75C65.18,64.95,66.25,63.85,66.25,62.2z"/>
	<linearGradient id="SVGID_8_" gradientUnits="userSpaceOnUse" x1="50.1668" y1="65.9469" x2="50.1668" y2="58.4786">
		<stop  offset="1.821087e-07" style="stop-color:#393777"/>
		<stop  offset="1" style="stop-color:#CA5B9E"/>
	</linearGradient>
	<path class="st7" d="M53.84,62.19c-0.01,2.02-1.7,3.78-3.6,3.75c-2.08-0.03-3.76-1.7-3.74-3.71c0.02-2.06,1.71-3.76,3.71-3.76
		C52.19,58.48,53.85,60.18,53.84,62.19z"/>
</g>
</svg>
