<?xml version="1.0" encoding="utf-8"?>
<!-- Generator: Adobe Illustrator 23.0.3, SVG Export Plug-In . SVG Version: 6.00 Build 0)  -->
<svg version="1.1" id="Layer_1" xmlns="http://www.w3.org/2000/svg" xmlns:xlink="http://www.w3.org/1999/xlink" x="0px" y="0px"
	 viewBox="0 0 100 100" style="enable-background:new 0 0 100 100;" xml:space="preserve">
<style type="text/css">
	.st0{fill:url(#SVGID_1_);}
	.st1{fill:url(#SVGID_2_);}
	.st2{fill:url(#SVGID_3_);}
	.st3{fill:url(#SVGID_4_);}
	.st4{fill:url(#SVGID_5_);}
	.st5{fill:url(#SVGID_6_);}
	.st6{fill:url(#SVGID_7_);}
	.st7{fill:url(#SVGID_8_);}
	.st8{fill:url(#SVGID_9_);}
	.st9{fill:url(#SVGID_10_);}
	.st10{fill:url(#SVGID_11_);}
	.st11{fill:url(#SVGID_12_);}
	.st12{fill:url(#SVGID_13_);}
	.st13{fill:url(#SVGID_14_);}
	.st14{fill:url(#SVGID_15_);}
	.st15{fill:url(#SVGID_16_);}
	.st16{fill:url(#SVGID_17_);}
	.st17{fill:url(#SVGID_18_);}
	.st18{fill:url(#SVGID_19_);}
	.st19{fill:url(#SVGID_20_);}
	.st20{fill:url(#SVGID_21_);}
	.st21{fill:url(#SVGID_22_);}
	.st22{fill:url(#SVGID_23_);}
	.st23{fill:url(#SVGID_24_);}
	.st24{fill:url(#SVGID_25_);}
	.st25{fill:url(#SVGID_26_);}
	.st26{fill:url(#SVGID_27_);}
	.st27{fill:url(#SVGID_28_);}
	.st28{fill:url(#SVGID_29_);}
	.st29{fill:url(#SVGID_30_);}
	.st30{fill:url(#SVGID_31_);}
	.st31{fill:url(#SVGID_32_);}
	.st32{fill:url(#SVGID_33_);}
	.st33{fill:url(#SVGID_34_);}
	.st34{fill:url(#SVGID_35_);}
	.st35{fill:url(#SVGID_36_);}
	.st36{fill:url(#SVGID_37_);}
	.st37{fill:url(#SVGID_38_);}
	.st38{fill:url(#SVGID_39_);}
	.st39{fill:url(#SVGID_40_);}
	.st40{fill:url(#SVGID_41_);}
	.st41{fill:url(#SVGID_42_);}
	.st42{fill:url(#SVGID_43_);}
	.st43{fill:url(#SVGID_44_);}
</style>
<g>
	<linearGradient id="SVGID_1_" gradientUnits="userSpaceOnUse" x1="91.1877" y1="89.5247" x2="91.1877" y2="40.1002">
		<stop  offset="1.821087e-07" style="stop-color:#393777"/>
		<stop  offset="1" style="stop-color:#CA5B9E"/>
	</linearGradient>
	<path class="st0" d="M99.51,80.14c-1.88,4.43-5.1,6.69-10.04,6.29c-1.4-0.11-3.02-0.41-3.07,1.93c-0.01,0.74-0.82,1.16-1.63,1.16
		c-0.82,0-1.47-0.43-1.61-1.2c-0.68-3.6-0.47-5.95,3.66-5.61c1.51,0.12,3.04,0.07,4.56-0.02c2.6-0.15,4.52-2.02,4.54-4.62
		c0.06-9.71,0.06-19.42,0-29.13c-0.02-2.82-2-4.71-4.82-4.85c-1.52-0.07-3.05,0-4.56-0.1c-1.03-0.07-1.83-0.65-1.82-1.79
		c0.02-1.11,0.79-1.61,1.83-1.8c6.22-1.1,10.1,0.75,12.95,6.2C99.51,57.78,99.51,68.96,99.51,80.14z"/>
	<linearGradient id="SVGID_2_" gradientUnits="userSpaceOnUse" x1="63.5743" y1="70.2093" x2="63.5743" y2="30.4822">
		<stop  offset="1.821087e-07" style="stop-color:#393777"/>
		<stop  offset="1" style="stop-color:#CA5B9E"/>
	</linearGradient>
	<path class="st1" d="M63.54,70.21c-10.9-0.01-19.91-9.13-19.83-20.08c0.07-10.61,9.22-19.66,19.87-19.65
		c10.79,0,19.95,9.3,19.86,20.13C83.35,61.26,74.25,70.22,63.54,70.21z M63.6,66.5c8.77-0.01,16.23-7.44,16.14-16.07
		c-0.09-8.95-7.46-16.33-16.22-16.25c-8.75,0.08-16.09,7.31-16.12,15.88C47.38,59.17,54.62,66.51,63.6,66.5z"/>
	<linearGradient id="SVGID_3_" gradientUnits="userSpaceOnUse" x1="21.8936" y1="89.5799" x2="21.8936" y2="40.3494">
		<stop  offset="1.821087e-07" style="stop-color:#393777"/>
		<stop  offset="1" style="stop-color:#CA5B9E"/>
	</linearGradient>
	<path class="st2" d="M24.62,40.37c4.93,0,9.86-0.01,14.79,0c0.72,0,1.46-0.07,2.11,0.35c0.59,0.38,0.96,0.9,0.9,1.62
		c-0.06,0.71-0.47,1.19-1.13,1.47c-0.83,0.36-1.71,0.25-2.58,0.25c-9.21,0.01-18.42,0-27.63,0.01c-4.38,0.01-6.04,1.68-6.04,6.05
		c-0.01,8.92-0.01,17.84,0,26.76c0.01,4.14,1.67,5.81,5.77,5.85c1.52,0.01,3.05,0,4.57,0.03c1.15,0.02,2.28,0.3,2.51,1.61
		c0.28,1.62,0.7,3.37-0.61,4.75c-0.85,0.9-2.56,0.42-2.7-0.88c-0.22-1.95-1.39-1.92-2.75-1.82c-3.27,0.25-6.19-0.38-8.43-3.04
		c-1.26-1.5-2.05-3.17-2.05-5.14c-0.02-9.86-0.06-19.73,0.01-29.59c0.03-4.49,3.87-8.2,8.44-8.27
		C14.76,40.31,19.69,40.37,24.62,40.37z"/>
	<linearGradient id="SVGID_4_" gradientUnits="userSpaceOnUse" x1="50.5049" y1="86.4169" x2="50.5049" y2="82.733">
		<stop  offset="1.821087e-07" style="stop-color:#393777"/>
		<stop  offset="1" style="stop-color:#CA5B9E"/>
	</linearGradient>
	<path class="st3" d="M50.56,86.42c-8.64,0-17.27,0-25.91,0c-0.72,0-1.46,0.02-2.17-0.09c-0.78-0.12-1.32-0.62-1.42-1.43
		c-0.12-0.91,0.31-1.6,1.15-1.87c0.67-0.22,1.42-0.28,2.14-0.28c17.42-0.01,34.84-0.01,52.26-0.01c0.51,0,1.02-0.01,1.52,0.07
		c1.12,0.18,1.95,0.75,1.86,2c-0.09,1.14-0.92,1.58-1.98,1.59c-2.39,0.02-4.79,0.02-7.19,0.02C64.06,86.42,57.31,86.42,50.56,86.42z
		"/>
	<linearGradient id="SVGID_5_" gradientUnits="userSpaceOnUse" x1="22.7329" y1="66.8144" x2="22.7329" y2="63.1473">
		<stop  offset="1.821087e-07" style="stop-color:#393777"/>
		<stop  offset="1" style="stop-color:#CA5B9E"/>
	</linearGradient>
	<path class="st4" d="M22.77,66.81c-3.05,0-6.1,0-9.14,0c-1.18,0-2.31-0.25-2.38-1.65c-0.08-1.5,1.06-1.98,2.33-1.99
		c6.1-0.03,12.19-0.03,18.29-0.01c1.27,0,2.42,0.45,2.37,1.95c-0.05,1.56-1.3,1.7-2.53,1.7C28.72,66.81,25.74,66.81,22.77,66.81z"/>
	<linearGradient id="SVGID_6_" gradientUnits="userSpaceOnUse" x1="22.7309" y1="53.7273" x2="22.7309" y2="50.0945">
		<stop  offset="1.821087e-07" style="stop-color:#393777"/>
		<stop  offset="1" style="stop-color:#CA5B9E"/>
	</linearGradient>
	<path class="st5" d="M22.48,53.72c-2.97,0-5.94,0-8.91,0c-1.2,0-2.28-0.3-2.33-1.69c-0.05-1.36,1-1.9,2.18-1.91
		c6.16-0.04,12.32-0.04,18.48,0c1.23,0.01,2.41,0.47,2.32,1.99c-0.08,1.42-1.22,1.61-2.39,1.61C28.71,53.72,25.6,53.73,22.48,53.72z
		"/>
	<linearGradient id="SVGID_7_" gradientUnits="userSpaceOnUse" x1="22.7306" y1="60.286" x2="22.7306" y2="56.6101">
		<stop  offset="1.821087e-07" style="stop-color:#393777"/>
		<stop  offset="1" style="stop-color:#CA5B9E"/>
	</linearGradient>
	<path class="st6" d="M22.85,60.28c-3.04,0-6.09,0-9.13,0c-1.25,0-2.47-0.24-2.48-1.78c0-1.5,1.21-1.87,2.45-1.88
		c6.02-0.02,12.03-0.03,18.05,0.01c1.21,0.01,2.47,0.35,2.47,1.86c0,1.71-1.38,1.78-2.66,1.79C28.65,60.29,25.75,60.28,22.85,60.28z
		"/>
	<linearGradient id="SVGID_8_" gradientUnits="userSpaceOnUse" x1="63.5806" y1="24.2999" x2="63.5806" y2="11.0692">
		<stop  offset="1.821087e-07" style="stop-color:#393777"/>
		<stop  offset="1" style="stop-color:#CA5B9E"/>
	</linearGradient>
	<path class="st7" d="M65.47,18.02c0,1.37,0.05,2.75-0.01,4.12c-0.06,1.19-0.57,2.18-1.93,2.16c-1.23-0.02-1.79-0.94-1.81-2.05
		c-0.05-3.03-0.05-6.06,0.03-9.09c0.03-1.07,0.53-2.06,1.78-2.09c1.39-0.03,1.84,1.04,1.9,2.19c0.08,1.58,0.02,3.18,0.02,4.76
		C65.45,18.02,65.46,18.02,65.47,18.02z"/>
	<linearGradient id="SVGID_9_" gradientUnits="userSpaceOnUse" x1="52.4081" y1="26.0224" x2="52.4081" y2="13.3781">
		<stop  offset="1.821087e-07" style="stop-color:#393777"/>
		<stop  offset="1" style="stop-color:#CA5B9E"/>
	</linearGradient>
	<path class="st8" d="M50.6,13.38c1.21,0.03,1.7,0.73,2.01,1.58c1.03,2.77,2.05,5.55,3.04,8.33c0.42,1.18,0.19,2.2-1.1,2.63
		c-1.23,0.41-1.91-0.36-2.3-1.4c-1.07-2.83-2.13-5.67-3.12-8.53C48.64,14.54,49.22,13.62,50.6,13.38z"/>
	<linearGradient id="SVGID_10_" gradientUnits="userSpaceOnUse" x1="74.7173" y1="26.0372" x2="74.7173" y2="13.3612">
		<stop  offset="1.821087e-07" style="stop-color:#393777"/>
		<stop  offset="1" style="stop-color:#CA5B9E"/>
	</linearGradient>
	<path class="st9" d="M78.11,15.92c-1.07,2.82-2.23,6-3.5,9.14c-0.36,0.88-1.23,1.22-2.19,0.79c-0.92-0.41-1.34-1.2-1.02-2.12
		c1.09-3.13,2.23-6.24,3.43-9.33c0.36-0.92,1.22-1.25,2.16-0.92C77.93,13.81,78.26,14.57,78.11,15.92z"/>
	<linearGradient id="SVGID_11_" gradientUnits="userSpaceOnUse" x1="42.546" y1="30.8587" x2="42.546" y2="19.8332">
		<stop  offset="1.821087e-07" style="stop-color:#393777"/>
		<stop  offset="1" style="stop-color:#CA5B9E"/>
	</linearGradient>
	<path class="st10" d="M47.45,28.94c0.03,0.79-0.3,1.31-0.92,1.67c-0.65,0.37-1.33,0.33-1.82-0.16c-2.46-2.47-4.63-5.19-6.74-7.96
		c-0.55-0.73-0.37-1.55,0.31-2.15c0.68-0.61,1.57-0.71,2.19-0.1c2.52,2.51,4.76,5.26,6.85,8.13C47.43,28.54,47.41,28.8,47.45,28.94z
		"/>
	<linearGradient id="SVGID_12_" gradientUnits="userSpaceOnUse" x1="84.5645" y1="30.8608" x2="84.5645" y2="19.8903">
		<stop  offset="1.821087e-07" style="stop-color:#393777"/>
		<stop  offset="1" style="stop-color:#CA5B9E"/>
	</linearGradient>
	<path class="st11" d="M89.47,21.48c-0.04,0.75-0.34,1.25-0.71,1.69c-1.86,2.22-3.73,4.44-5.61,6.65c-0.77,0.9-1.71,1.5-2.81,0.57
		c-1.07-0.91-0.73-1.94,0.05-2.87c1.9-2.28,3.82-4.56,5.75-6.82c0.62-0.73,1.41-1.03,2.33-0.64C89.13,20.34,89.4,20.92,89.47,21.48z
		"/>
	<linearGradient id="SVGID_13_" gradientUnits="userSpaceOnUse" x1="63.5719" y1="63.6584" x2="63.5719" y2="37.0325">
		<stop  offset="1.821087e-07" style="stop-color:#393777"/>
		<stop  offset="1" style="stop-color:#CA5B9E"/>
	</linearGradient>
	<path class="st12" d="M63.49,63.66c-7.21-0.03-13.28-6.18-13.24-13.43c0.04-7.08,6.14-13.15,13.27-13.2
		c7.24-0.05,13.44,6.25,13.37,13.56C76.82,57.65,70.63,63.69,63.49,63.66z M63.45,59.95c5.22,0.06,9.72-4.29,9.75-9.41
		c0.03-5.32-4.37-9.8-9.63-9.8c-5.07-0.01-9.55,4.34-9.63,9.34C53.86,55.44,58.15,59.89,63.45,59.95z"/>
	<linearGradient id="SVGID_14_" gradientUnits="userSpaceOnUse" x1="66.0823" y1="52.0685" x2="66.0823" y2="43.6349">
		<stop  offset="1.821087e-07" style="stop-color:#393777"/>
		<stop  offset="1" style="stop-color:#CA5B9E"/>
	</linearGradient>
	<path class="st13" d="M70.29,50.13c-0.01,0.78-0.29,1.68-1.42,1.89c-1.21,0.23-1.96-0.4-2.15-1.58c-0.31-1.9-1.45-2.89-3.28-3.23
		c-1.07-0.2-1.69-0.87-1.53-1.99c0.18-1.22,1.07-1.63,2.21-1.59C67.17,43.75,70.21,46.84,70.29,50.13z"/>
</g>
</svg>
