<?xml version="1.0" encoding="utf-8"?>
<!-- Generator: Adobe Illustrator 23.0.3, SVG Export Plug-In . SVG Version: 6.00 Build 0)  -->
<svg version="1.1" id="Layer_1" xmlns="http://www.w3.org/2000/svg" xmlns:xlink="http://www.w3.org/1999/xlink" x="0px" y="0px"
	 viewBox="0 0 100 100" style="enable-background:new 0 0 100 100;" xml:space="preserve">
<style type="text/css">
	.st0{fill:url(#SVGID_1_);}
	.st1{fill:url(#SVGID_2_);}
	.st2{fill:url(#SVGID_3_);}
	.st3{fill:url(#SVGID_4_);}
	.st4{fill:url(#SVGID_5_);}
	.st5{fill:url(#SVGID_6_);}
	.st6{fill:url(#SVGID_7_);}
	.st7{fill:url(#SVGID_8_);}
	.st8{fill:url(#SVGID_9_);}
	.st9{fill:url(#SVGID_10_);}
	.st10{fill:url(#SVGID_11_);}
	.st11{fill:url(#SVGID_12_);}
	.st12{fill:url(#SVGID_13_);}
	.st13{fill:url(#SVGID_14_);}
	.st14{fill:url(#SVGID_15_);}
	.st15{fill:url(#SVGID_16_);}
	.st16{fill:url(#SVGID_17_);}
	.st17{fill:url(#SVGID_18_);}
	.st18{fill:url(#SVGID_19_);}
	.st19{fill:url(#SVGID_20_);}
	.st20{fill:url(#SVGID_21_);}
	.st21{fill:url(#SVGID_22_);}
	.st22{fill:url(#SVGID_23_);}
	.st23{fill:url(#SVGID_24_);}
	.st24{fill:url(#SVGID_25_);}
	.st25{fill:url(#SVGID_26_);}
	.st26{fill:url(#SVGID_27_);}
	.st27{fill:url(#SVGID_28_);}
	.st28{fill:url(#SVGID_29_);}
	.st29{fill:url(#SVGID_30_);}
	.st30{fill:url(#SVGID_31_);}
	.st31{fill:url(#SVGID_32_);}
	.st32{fill:url(#SVGID_33_);}
	.st33{fill:url(#SVGID_34_);}
	.st34{fill:url(#SVGID_35_);}
	.st35{fill:url(#SVGID_36_);}
	.st36{fill:url(#SVGID_37_);}
	.st37{fill:url(#SVGID_38_);}
	.st38{fill:url(#SVGID_39_);}
	.st39{fill:url(#SVGID_40_);}
	.st40{fill:url(#SVGID_41_);}
	.st41{fill:url(#SVGID_42_);}
	.st42{fill:url(#SVGID_43_);}
	.st43{fill:url(#SVGID_44_);}
</style>
<g>
	<linearGradient id="SVGID_1_" gradientUnits="userSpaceOnUse" x1="50.0942" y1="76.2171" x2="50.0942" y2="16.0698">
		<stop  offset="1.821087e-07" style="stop-color:#393777"/>
		<stop  offset="1" style="stop-color:#CA5B9E"/>
	</linearGradient>
	<path class="st0" d="M97.08,16.09c0,20.03,0,40.07,0,60.1c-0.16,0.01-0.31,0.02-0.47,0.02c-30.99,0-61.97,0-92.96,0
		c-0.58,0-0.53,0.05-0.53-0.52c0-19.7,0-39.4,0-59.1c0-0.53,0-0.53,0.53-0.53c31,0,61.99,0,92.99,0
		C96.78,16.07,96.93,16.08,97.08,16.09z M50.1,19.9c-14.23,0-28.45,0-42.68,0c-0.49,0-0.49,0-0.49,0.49c0,17.17,0,34.35,0,51.52
		c0,0.49,0,0.49,0.49,0.49c28.45,0,56.9,0,85.36,0c0.49,0,0.49,0,0.49-0.49c0-8.5,0-17,0-25.49c0-8.7,0-17.39,0-26.09
		c0-0.43,0-0.43-0.43-0.43c-0.08,0-0.16,0-0.24,0C78.44,19.9,64.27,19.9,50.1,19.9z"/>
	<linearGradient id="SVGID_2_" gradientUnits="userSpaceOnUse" x1="50.0054" y1="83.7296" x2="50.0054" y2="79.9086">
		<stop  offset="1.821087e-07" style="stop-color:#393777"/>
		<stop  offset="1" style="stop-color:#CA5B9E"/>
	</linearGradient>
	<path class="st1" d="M49.99,83.73c-8.79,0-17.59,0-26.38,0c-0.91,0-1.67-0.6-1.86-1.47c-0.26-1.18,0.59-2.29,1.82-2.35
		c0.12-0.01,0.24,0,0.35,0c17.36,0,34.72,0,52.08,0c0.41,0,0.81,0.02,1.18,0.19c0.83,0.39,1.27,1.27,1.07,2.15
		c-0.2,0.87-0.95,1.47-1.86,1.47C67.6,83.73,58.79,83.73,49.99,83.73z"/>
	<linearGradient id="SVGID_3_" gradientUnits="userSpaceOnUse" x1="52.2293" y1="60.4686" x2="52.2293" y2="34.1231">
		<stop  offset="1.821087e-07" style="stop-color:#393777"/>
		<stop  offset="1" style="stop-color:#CA5B9E"/>
	</linearGradient>
	<path class="st2" d="M40.68,47.29c0-3.93,0.02-7.87-0.01-11.8c-0.01-1.14,1.05-1.71,2-1.15c3.81,2.24,7.65,4.45,11.48,6.66
		c2.93,1.7,5.87,3.4,8.8,5.1c0.17,0.1,0.34,0.2,0.49,0.33c0.59,0.54,0.46,1.49-0.27,1.94c-1.06,0.64-2.14,1.25-3.22,1.88
		c-3.54,2.05-7.08,4.1-10.61,6.15c-2.24,1.3-4.47,2.62-6.73,3.88c-0.86,0.48-1.91,0.06-1.91-1.09
		C40.68,55.22,40.68,51.25,40.68,47.29z"/>
</g>
</svg>
