<?xml version="1.0" encoding="utf-8"?>
<!-- Generator: Adobe Illustrator 23.0.3, SVG Export Plug-In . SVG Version: 6.00 Build 0)  -->
<svg version="1.1" id="Layer_1" xmlns="http://www.w3.org/2000/svg" xmlns:xlink="http://www.w3.org/1999/xlink" x="0px" y="0px"
	 viewBox="0 0 492 492" style="enable-background:new 0 0 492 492;" xml:space="preserve">
<style type="text/css">
	.st0{fill:url(#SVGID_1_);stroke:#C9C9C9;stroke-width:4;stroke-miterlimit:10;}
	.st1{fill:none;stroke:url(#SVGID_2_);stroke-width:10;stroke-linecap:round;stroke-miterlimit:10;}
	.st2{fill:none;stroke:url(#SVGID_3_);stroke-width:10;stroke-linecap:round;stroke-miterlimit:10;}
	.st3{fill:none;stroke:url(#SVGID_4_);stroke-width:10;stroke-linecap:round;stroke-miterlimit:10;}
	.st4{fill:url(#SVGID_5_);}
</style>
<linearGradient id="SVGID_1_" gradientUnits="userSpaceOnUse" x1="245.5417" y1="3" x2="245.5417" y2="489.9166">
	<stop  offset="1.821087e-07" style="stop-color:#F9F9F9"/>
	<stop  offset="1" style="stop-color:#D6D6D6"/>
</linearGradient>
<circle class="st0" cx="245.54" cy="246.46" r="243.46"/>
<g>
	
		<linearGradient id="SVGID_2_" gradientUnits="userSpaceOnUse" x1="87.0645" y1="139.5231" x2="405.6956" y2="139.5231" gradientTransform="matrix(1 0 0 -1 0 492)">
		<stop  offset="0" style="stop-color:#CD5C9F"/>
		<stop  offset="1" style="stop-color:#373676"/>
	</linearGradient>
	<path class="st1" d="M196.11,361.71c-0.01-0.1-0.02-0.21-0.04-0.32c1.38-0.21,2.75-0.5,4.14-0.61c8.17-0.62,16.33-1.09,24.53-0.49
		c6.17,0.45,12.21,1.62,18.22,3.03c10.13,2.37,20.2,2.24,30.22-0.82c5.61-1.71,11.31-3.13,16.98-4.63c2.63-0.7,5.31-1.22,7.96-1.88
		c2.49-0.62,3.12-1.53,2.8-4.1c-0.32-2.65-1.44-4.93-3.64-6.48c-1.29-0.91-2.75-1.65-4.24-2.2c-3.98-1.45-8.15-2.11-12.36-2.39
		c-6.61-0.44-13.15,0.13-19.62,1.6c-5.77,1.31-11.58,1.81-17.48,0.99c-6.87-0.95-13.24-3.33-19.06-7c-6.67-4.21-13.24-8.58-19.78-13
		c-7.58-5.13-15.66-9.15-24.49-11.6c-8.7-2.41-17.55-3.35-26.58-2.86c-6.25,0.33-12.39,1.16-18.37,3.03
		c-13.97,4.37-27.96,8.73-41.94,13.09c-0.39,0.12-0.76,0.3-1.09,0.44c-0.37,3.75-0.2,49.99,0.2,51.29c0.52-0.05,1.05-0.08,1.57-0.17
		c8.3-1.4,16.62-2.69,25.03-3.24c6.5-0.42,12.94-0.14,19.28,1.36c23.02,5.45,46,11.01,69.02,16.46c6.97,1.65,13.86,3.75,21.01,4.57
		c7.68,0.88,15.14,0.15,22.27-3.08c2.1-0.95,4.27-1.77,6.48-2.45c20.06-6.19,40.12-12.32,60.18-18.5
		c25.72-7.93,51.52-15.6,77.02-24.22c1.94-0.65,3.75-1.75,5.55-2.75c1.13-0.62,1.06-1.21-0.08-1.91c-1.27-0.79-2.61-1.32-4.13-1.54
		c-3.7-0.53-7.38-1.18-11.14-0.82c-3.54,0.34-7.1,0.57-10.62,1.02c-5.41,0.69-10.85,1.28-16.17,2.37
		c-8.41,1.72-16.79,3.69-25.12,5.81c-13.04,3.31-26.09,6.63-39.02,10.34c-8.76,2.52-17.33,5.73-25.99,8.64
		c-2.89,0.97-5.85,1.53-8.89,1.66c-4.42,0.2-8.73-0.62-13.06-1.39c-9.56-1.72-19.15-3.35-28.74-4.95
		c-5.68-0.94-11.36-1.81-17.13-1.97C198.56,362,197.34,361.82,196.11,361.71z"/>
	
		<linearGradient id="SVGID_3_" gradientUnits="userSpaceOnUse" x1="86.7907" y1="361.5747" x2="406.0934" y2="361.5747" gradientTransform="matrix(1 0 0 -1 0 492)">
		<stop  offset="0" style="stop-color:#CD5C9F"/>
		<stop  offset="1" style="stop-color:#373676"/>
	</linearGradient>
	<path class="st2" d="M401.09,158.78c0-0.73,0-1.31,0-1.89c0-15.49,0-30.98,0-46.48c0-0.59,0-1.19-0.06-1.78
		c-0.2-2.08-1.2-2.83-3.24-2.39c-1.04,0.22-2.05,0.63-3.1,0.79c-10.15,1.6-20.32,2.81-30.64,2.3c-5.23-0.26-10.41-0.85-15.49-2.08
		c-15.89-3.87-31.77-7.82-47.67-11.69c-10.94-2.66-21.88-5.36-32.87-7.81c-8.09-1.8-16.1-1.41-23.97,1.55
		c-6.16,2.31-12.38,4.47-18.67,6.42c-40.25,12.52-80.52,24.96-120.8,37.37c-4.04,1.25-7.95,2.75-11.72,4.65
		c-0.46,0.23-1.01,0.33-1.07,1.03c-0.06,0.77,0.5,0.97,0.98,1.32c1.71,1.25,3.71,1.45,5.71,1.76c3.59,0.54,7.19,0.88,10.81,0.43
		c4.24-0.53,8.48-1.02,12.69-1.67c7.73-1.18,15.5-2.21,23.17-3.75c18.67-3.75,37.01-8.85,55.2-14.45c8.32-2.57,16.53-5.53,24.8-8.28
		c3.34-1.11,6.79-1.62,10.32-1.66c4.21-0.05,8.22,0.96,12.26,1.94c11.54,2.82,23.2,4.89,35.08,5.62c3.08,0.19,6.16,0.37,9.22,0.67
		c1.34,0.13,2.75,0.12,3.98,0.95c-5.16,0.47-10.3,0.94-15.45,1.05c-12.82,0.29-25.46-1.14-37.88-4.38
		c-4.32-1.13-8.71-1.28-13.04-0.25c-9.51,2.26-18.99,4.66-28.48,7.03c-2.53,0.63-5.05,1.34-7.55,2.05c-1.7,0.48-2.44,1.39-2.28,2.92
		c0.39,3.84,1.99,7,5.69,8.6c2.11,0.91,4.31,1.73,6.56,2.21c8.28,1.76,16.6,1.71,24.92,0.22c3.55-0.64,7.1-1.48,10.68-1.81
		c8.15-0.76,16,0.71,23.31,4.38c4.33,2.18,8.49,4.75,12.58,7.36c5.3,3.38,10.43,7.03,15.71,10.44c6.31,4.07,13,7.39,20.31,9.27
		c5.8,1.5,11.69,2.57,17.67,3.09c9.13,0.79,18.16,0.35,26.97-2.28c5.39-1.61,10.68-3.59,15.99-5.45c8.29-2.91,16.63-5.59,25.38-6.79
		C398.39,159.14,399.67,158.98,401.09,158.78z"/>
	
		<linearGradient id="SVGID_4_" gradientUnits="userSpaceOnUse" x1="184.443" y1="250.5284" x2="307.9764" y2="250.5284" gradientTransform="matrix(1 0 0 -1 0 492)">
		<stop  offset="0" style="stop-color:#CD5C9F"/>
		<stop  offset="1" style="stop-color:#373676"/>
	</linearGradient>
	<path class="st3" d="M245.97,298.25c-31.39-0.16-56.68-25.84-56.53-57.43c0.14-31.55,27.04-56.71,57.8-56.11
		c30.23,0.59,56.2,25.55,55.73,57.65C302.5,273.21,277.25,298.18,245.97,298.25z"/>
	
		<linearGradient id="SVGID_5_" gradientUnits="userSpaceOnUse" x1="246.2482" y1="277.9791" x2="246.2482" y2="222.9039" gradientTransform="matrix(1 0 0 -1 0 492)">
		<stop  offset="0" style="stop-color:#CD5C9F"/>
		<stop  offset="1" style="stop-color:#373676"/>
	</linearGradient>
	<path class="st4" d="M245.55,214.02c2.3,0,4.36,0,6.42,0c-0.1,0.92-0.24,1.74-0.28,2.56c-0.08,1.6,0.65,2.78,2.08,3.41
		c1.08,0.47,2.25,0.73,3.38,1.05c0.57,0.16,1.16,0.22,1.74,0.36c2.07,0.53,2.5,1.17,1.93,3.17c-0.49,1.7-1.11,3.35-1.74,5.21
		c-0.81-0.23-1.48-0.42-2.14-0.61c-2.29-0.62-4.56-1.29-6.86-1.85c-2.22-0.53-4.09,0.31-5.7,1.78c-1,0.91-1.08,1.63-0.53,2.87
		c0.48,1.06,1.21,1.91,2.23,2.46c1.78,0.95,3.58,1.85,5.35,2.81s3.61,1.84,5.23,3.01c5.87,4.25,6.82,11.46,2.39,17.21
		c-1.46,1.89-3.35,3.17-5.64,3.84c-0.68,0.2-1.39,0.33-2.06,0.55c-2.07,0.69-2.81,1.79-2.82,3.98c-0.01,1.05-0.12,2.08-0.19,3.26
		c-1.96,0-3.67,0-5.38,0c-0.73,0-1.1-0.38-1.14-1.08c-0.04-0.71-0.05-1.42-0.05-2.14c-0.01-1.89-0.87-3.09-2.71-3.69
		c-2.48-0.81-4.91-1.74-7.37-2.63c-0.27-0.1-0.53-0.24-1.03-0.47c0.77-2.38,1.54-4.77,2.36-7.29c1.85,0.52,3.55,1,5.25,1.47
		c1.77,0.49,3.55,0.95,5.32,1.44c2.86,0.79,4.91-0.7,6.83-2.48c0.7-0.64,0.65-1.5,0.24-2.31c-0.96-1.89-2.19-3.51-4.21-4.39
		c-1.74-0.76-3.52-1.46-5.16-2.4c-1.8-1.02-3.61-2.09-5.16-3.44c-5.22-4.56-4.06-12.76,0.63-16.47c1.61-1.27,3.41-2.11,5.39-2.65
		c2.52-0.69,2.82-1.1,3.04-3.66C245.28,216,245.42,215.07,245.55,214.02z"/>
</g>
</svg>
