<?xml version="1.0" encoding="utf-8"?>
<!-- Generator: Adobe Illustrator 23.0.3, SVG Export Plug-In . SVG Version: 6.00 Build 0)  -->
<svg version="1.1" id="Layer_1" xmlns="http://www.w3.org/2000/svg" xmlns:xlink="http://www.w3.org/1999/xlink" x="0px" y="0px"
	 viewBox="0 0 492 492" style="enable-background:new 0 0 492 492;" xml:space="preserve">
<style type="text/css">
	.st0{fill:url(#SVGID_1_);stroke:#C9C9C9;stroke-width:4;stroke-miterlimit:10;}
	.st1{fill:url(#SVGID_2_);}
	.st2{fill:none;stroke:url(#SVGID_3_);stroke-width:10;stroke-miterlimit:10;}
	.st3{fill:none;stroke:url(#SVGID_4_);stroke-width:10;stroke-miterlimit:10;}
	.st4{fill:none;stroke:url(#SVGID_5_);stroke-width:10;stroke-miterlimit:10;}
	.st5{fill:none;stroke:url(#SVGID_6_);stroke-width:10;stroke-miterlimit:10;}
	.st6{fill:none;stroke:url(#SVGID_7_);stroke-width:10;stroke-miterlimit:10;}
	.st7{fill:none;stroke:url(#SVGID_8_);stroke-width:10;stroke-miterlimit:10;}
	.st8{fill:none;stroke:url(#SVGID_9_);stroke-width:10;stroke-miterlimit:10;}
</style>
<linearGradient id="SVGID_1_" gradientUnits="userSpaceOnUse" x1="246" y1="2.5417" x2="246" y2="489.4583">
	<stop  offset="1.821087e-07" style="stop-color:#F9F9F9"/>
	<stop  offset="1" style="stop-color:#D6D6D6"/>
</linearGradient>
<circle class="st0" cx="246" cy="246" r="243.46"/>
<g>
	
		<linearGradient id="SVGID_2_" gradientUnits="userSpaceOnUse" x1="247.8503" y1="219.7538" x2="247.8503" y2="66.2608" gradientTransform="matrix(1 0 0 -1 0 492)">
		<stop  offset="0" style="stop-color:#CD5C9F"/>
		<stop  offset="1" style="stop-color:#373676"/>
	</linearGradient>
	<path class="st1" d="M235.35,425.74c1.48-49.02,2.78-96.53,4.64-143.95c0.14-3.65,4.2-9.26,6.6-9.53c2.59-0.29,7.58,4.31,7.73,7.33
		c2.36,48.43,4.11,96.96,6.03,146.14C251.31,425.74,243.59,425.74,235.35,425.74z"/>
	
		<linearGradient id="SVGID_3_" gradientUnits="userSpaceOnUse" x1="78.1379" y1="399.9922" x2="78.1379" y2="156.2251" gradientTransform="matrix(1 0 0 -1 0 492)">
		<stop  offset="0" style="stop-color:#CD5C9F"/>
		<stop  offset="1" style="stop-color:#373676"/>
	</linearGradient>
	<path class="st2" d="M103.06,95.72c0,0-113.32,102.2,1.32,236.81"/>
	
		<linearGradient id="SVGID_4_" gradientUnits="userSpaceOnUse" x1="127.8071" y1="359.0961" x2="127.8071" y2="195.5591" gradientTransform="matrix(1 0 0 -1 0 492)">
		<stop  offset="0" style="stop-color:#CD5C9F"/>
		<stop  offset="1" style="stop-color:#373676"/>
	</linearGradient>
	<path class="st3" d="M144.49,136.62c0,0-74.93,67.57,0.87,156.58"/>
	
		<linearGradient id="SVGID_5_" gradientUnits="userSpaceOnUse" x1="171.3558" y1="322.4018" x2="171.3558" y2="231.3393" gradientTransform="matrix(1 0 0 -1 0 492)">
		<stop  offset="0" style="stop-color:#CD5C9F"/>
		<stop  offset="1" style="stop-color:#373676"/>
	</linearGradient>
	<path class="st4" d="M180.6,173.31c0,0-40.25,36.29,0.46,84.11"/>
	
		<linearGradient id="SVGID_6_" gradientUnits="userSpaceOnUse" x1="733.6828" y1="399.9922" x2="733.6828" y2="156.2251" gradientTransform="matrix(-1 0 0 -1 1142.865 492)">
		<stop  offset="0" style="stop-color:#CD5C9F"/>
		<stop  offset="1" style="stop-color:#373676"/>
	</linearGradient>
	<path class="st5" d="M384.26,95.72c0,0,113.32,102.2-1.32,236.81"/>
	
		<linearGradient id="SVGID_7_" gradientUnits="userSpaceOnUse" x1="783.3636" y1="359.0961" x2="783.3636" y2="195.5591" gradientTransform="matrix(-1 0 0 -1 1142.865 492)">
		<stop  offset="0" style="stop-color:#CD5C9F"/>
		<stop  offset="1" style="stop-color:#373676"/>
	</linearGradient>
	<path class="st6" d="M342.82,136.62c0,0,74.93,67.57-0.87,156.58"/>
	
		<linearGradient id="SVGID_8_" gradientUnits="userSpaceOnUse" x1="826.9007" y1="322.4018" x2="826.9007" y2="231.3393" gradientTransform="matrix(-1 0 0 -1 1142.865 492)">
		<stop  offset="0" style="stop-color:#CD5C9F"/>
		<stop  offset="1" style="stop-color:#373676"/>
	</linearGradient>
	<path class="st7" d="M306.72,173.31c0,0,40.25,36.29-0.46,84.11"/>
	
		<linearGradient id="SVGID_9_" gradientUnits="userSpaceOnUse" x1="243.66" y1="291.3" x2="243.66" y2="247.9162" gradientTransform="matrix(1 0 0 -1 0 492)">
		<stop  offset="0" style="stop-color:#CD5C9F"/>
		<stop  offset="1" style="stop-color:#373676"/>
	</linearGradient>
	
		<ellipse transform="matrix(0.1602 -0.9871 0.9871 0.1602 -14.8902 427.2824)" class="st8" cx="243.66" cy="222.39" rx="16.69" ry="16.69"/>
</g>
</svg>
