<?xml version="1.0" encoding="utf-8"?>
<!-- Generator: Adobe Illustrator 23.0.3, SVG Export Plug-In . SVG Version: 6.00 Build 0)  -->
<svg version="1.2" baseProfile="tiny" xmlns="http://www.w3.org/2000/svg" xmlns:xlink="http://www.w3.org/1999/xlink" x="0px"
	 y="0px" viewBox="0 0 492 492" xml:space="preserve">
<g id="Layer_1">
	<linearGradient id="SVGID_1_" gradientUnits="userSpaceOnUse" x1="244.1927" y1="84.7641" x2="244.1927" y2="490.9989">
		<stop  offset="0" style="stop-color:#CD5C9F"/>
		<stop  offset="1" style="stop-color:#373676"/>
	</linearGradient>
	<path fill="url(#SVGID_1_)" d="M270.67,417.39c7.06,21.95,13.93,44.02,21.34,65.91c1.98,5.86,1.86,7.84-5.2,7.69
		c-63.89-1.3-127.78-2.37-191.68-3.26c-7.55-0.11-4.55-3.36-2.9-6.75c17.18-35.37,34.21-70.82,51.64-106.07
		c2.96-5.98,2.46-9.54-2.41-14.38c-73.8-73.46-81.98-188.52-19.79-271.78c3.66-4.91,5.44-5.4,10.02-0.83
		c29.22,29.15,58.8,57.92,88.2,86.88c2.58,2.54,4.99,4.28,8.99,4.28c20.5-0.02,41,0.07,61.49,0.7c6.64,0.2,8.74-1.92,7.52-8.19
		c-2.38-12.23-1.58-23.36,9.38-31.93c8.28-6.47,17.07-9.3,27.12-5.78c10.14,3.55,19.55,8.98,23.3,19.57
		c5.68,16.03-1.69,30.27-17.74,36.35c-6.85,2.6-13.97,4.15-21.36,3.77c-3.86-0.2-5.71,0.46-5.29,5.26
		c1.91,22.28,3.5,44.6,4.87,66.93c0.29,4.74,2.18,7.96,5.43,11.13c27.04,26.35,53.86,52.94,81.05,79.15
		c4.82,4.64,5.21,7.03-0.13,11.61c-36.61,31.37-78.6,48.34-127.03,48.74c-1.62,0.01-3.24,0.05-4.85,0.17
		C272.12,416.6,271.64,416.96,270.67,417.39z M302.74,255.14c0.25,0.36,0.5,0.72,0.74,1.08c0.13-0.2,0.4-0.55,0.37-0.58
		c-0.28-0.26-0.62-0.47-0.93-0.69c0.55-19.63-2.43-39.06-3.4-58.6c-0.1-1.96-0.97-2.95-2.94-2.95c-18.66,0-37.32,0-55.65,0
		c13.81,14.29,27.31,28.76,41.4,42.61C288.96,242.53,294.76,250.03,302.74,255.14z M93.65,212.15c0.18,9.78,0.71,17.82,1.59,25.87
		c9.24,84.58,75.79,152.27,160.59,163.15c48.2,6.18,91.06-6.86,129.68-35.64c4-2.98,4.43-4.8,0.62-8.42
		c-14.07-13.36-27.87-27.01-41.71-40.61c-70.56-69.34-141.15-138.64-211.54-208.15c-4.68-4.62-6.33-3.18-9.17,1.37
		C103.86,141.62,93.87,176.31,93.65,212.15z M275.05,475.19c-5.9-18.13-12.1-37-18.13-55.91c-1-3.13-2.88-3.73-5.85-4.16
		c-32.48-4.7-62.18-16.46-88.58-36.05c-3.9-2.9-5.03-1.88-6.82,1.83c-13.96,29.11-27.97,58.18-42.22,87.15
		c-2.6,5.29-1.33,6.36,4.07,6.37c13.73,0.03,27.47,0.7,41.2,0.74C197.23,475.26,235.75,475.19,275.05,475.19z M310.71,164.87
		c0.32,3.49,0.71,6.97,0.93,10.46c0.2,3.19,1.56,5.08,4.97,4.97c8.15-0.26,16.15-1.12,23.18-5.82c6.1-4.07,7.27-9.87,5.06-16.33
		c-2.35-6.87-15.12-13.35-22.14-11.67C314.96,148.33,310.46,155.31,310.71,164.87z"/>
	<linearGradient id="SVGID_2_" gradientUnits="userSpaceOnUse" x1="385.1391" y1="46.5211" x2="385.1391" y2="166.005">
		<stop  offset="0" style="stop-color:#CD5C9F"/>
		<stop  offset="1" style="stop-color:#373676"/>
	</linearGradient>
	<path fill="url(#SVGID_2_)" d="M329.63,46.58c45.09,5.07,91.47,30.11,110.57,88.62c2.5,7.66,3.73,15.72,5.91,23.49
		c1.28,4.59-0.23,6.46-4.75,6.8c-3.87,0.29-7.97,2.32-8.91-4.32c-1.94-13.68-5.99-26.82-12.29-39.15
		c-18.52-36.27-48.82-55.66-88.55-61.33c-6.29-0.9-9.67-6.92-6.86-12.44C325.91,45.93,327.83,46.64,329.63,46.58z"/>
	<linearGradient id="SVGID_3_" gradientUnits="userSpaceOnUse" x1="364.3951" y1="88.8632" x2="364.3951" y2="170.6921">
		<stop  offset="0" style="stop-color:#CD5C9F"/>
		<stop  offset="1" style="stop-color:#373676"/>
	</linearGradient>
	<path fill="url(#SVGID_3_)" d="M395.74,170.58c-2.94,0.61-3.43-1.35-3.98-3.66c-8.19-34.61-30.36-55.22-64.22-64.22
		c-7.04-1.87-2.24-6.97-2.3-10.59c-0.08-4.49,3-3.25,5.66-2.55c37.69,9.86,62.85,32.73,73.35,70.75
		C406.47,168.37,404.53,170.58,395.74,170.58z"/>
	<linearGradient id="SVGID_4_" gradientUnits="userSpaceOnUse" x1="300.9516" y1="248.3421" x2="300.9516" y2="265.0145">
		<stop  offset="0" style="stop-color:#CD5C9F"/>
		<stop  offset="1" style="stop-color:#373676"/>
	</linearGradient>
	<path fill="url(#SVGID_4_)" d="M299.38,259.06l-6.34-9.16l7.55,0.19l1.59-1.75l3.76,2.62c0.34,0.23,0.81,0.55,1.31,1.01
		c0.35,0.32,3.14,3.11,0.48,6.9l-4.16,6.14L299.38,259.06z"/>
	<linearGradient id="SVGID_5_" gradientUnits="userSpaceOnUse" x1="303.3011" y1="254.9511" x2="303.3011" y2="256.2181">
		<stop  offset="0" style="stop-color:#CD5C9F"/>
		<stop  offset="1" style="stop-color:#373676"/>
	</linearGradient>
	<path fill="url(#SVGID_5_)" d="M302.92,254.95c0.32,0.22,0.65,0.43,0.93,0.69c0.03,0.03-0.24,0.38-0.37,0.58
		c-0.25-0.36-0.5-0.72-0.74-1.07C302.74,255.14,302.92,254.95,302.92,254.95z"/>
</g>
<g id="Master_Layer_2">
</g>
</svg>
