<?xml version="1.0" encoding="utf-8"?>
<!-- Generator: Adobe Illustrator 23.0.3, SVG Export Plug-In . SVG Version: 6.00 Build 0)  -->
<svg version="1.2" baseProfile="tiny" xmlns="http://www.w3.org/2000/svg" xmlns:xlink="http://www.w3.org/1999/xlink" x="0px"
	 y="0px" viewBox="0 0 492 492" xml:space="preserve">
<g id="Layer_1">
	<linearGradient id="SVGID_1_" gradientUnits="userSpaceOnUse" x1="234.5234" y1="26.6191" x2="234.5234" y2="431.1629">
		<stop  offset="0" style="stop-color:#CD5C9F"/>
		<stop  offset="1" style="stop-color:#373676"/>
	</linearGradient>
	<path fill="url(#SVGID_1_)" d="M441.85,237.32c-6.49,21.21-21.65,34.37-40.24,45.04c-79.21,45.47-158.16,91.38-237.37,136.85
		c-8.61,4.94-18.29,8.02-27.48,11.96c-6.74,0-13.48,0-20.23,0C92,424.07,79.86,406.65,77.17,382.3
		c-1.32-11.91-0.76-24.02-0.98-36.04c-0.1-5.46-0.02-10.92-0.02-16.44c-2.7-0.2-4.09-0.36-5.47-0.4
		c-23.43-0.58-32.62-10.06-32.66-33.73c-0.01-8.05,0-16.11,0-22.83c-4.52-2.17-7.69-3.69-10.85-5.2c0-1.69,0-3.37,0-5.06
		c4.68-1.16,9.31-2.76,14.06-3.35c4.68-0.58,9.5-0.13,15.51-0.13c0-9.35-0.28-18.26,0.11-27.13c0.22-5.03-2.68-13.23,5.96-13
		c8.36,0.23,5.44,8.32,5.66,13.42c0.37,8.6,0.1,17.23,0.1,26.28c9.37,0,17.66,0,27.09,0c0-10.31-0.04-20.34,0.02-30.38
		c0.02-4.18-0.59-9.34,5.45-9.51c6.56-0.19,6.22,5.19,6.25,9.72c0.06,9.81,0.02,19.61,0.02,30.61c6.44,0,12.24-0.1,18.03,0.03
		c4.56,0.11,10.99-1.37,10.84,5.56c-0.06,2.78-5.2,5.45-8.02,8.17c-0.73-0.43-1.45-0.86-2.18-1.3c0,8.08,0.01,16.16,0,24.24
		c-0.04,23.4-9.1,32.83-32.18,33.55c-1.66,0.05-3.32,0.31-6.94,0.66c1.07,19.58,0.27,39.4,3.66,58.49
		c4.49,25.3,24.81,36.05,49.46,28.57c6.64-2.01,13.11-5.09,19.15-8.56c79.28-45.66,158.55-91.35,237.59-137.42
		c8.83-5.14,17.38-11.66,24.13-19.26c12.6-14.19,12.43-31.52,0.1-45.96c-5.54-6.49-12.43-12.39-19.8-16.69
		c-81.25-47.3-162.66-94.33-244.21-141.12c-7.18-4.12-15.37-7.09-23.46-8.85c-18.29-3.98-33.46,4.6-40.69,21.88
		c-1.08,2.58-2.44,5.26-2.62,7.97c-1.25,19.49-2.23,38.99-3.34,59.33c5.05,0,8.1-0.11,11.15,0.02c17.07,0.74,27.6,11.33,27.97,28.38
		c0.21,9.53,0.04,19.06,0.04,29.13c1.85,0.36,3.74,0.2,4.84,1.06c2.18,1.7,3.92,3.96,5.84,5.98c-2.35,1.88-4.68,5.36-7.04,5.39
		c-31.74,0.36-63.48,0.32-95.22,0.1c-2.44-0.02-4.87-2.16-7.3-3.31c0-1.69,0-3.37,0-5.06c3.4-1.57,6.8-3.14,10.85-5.02
		c0-7.97-0.02-16.34,0-24.7c0.06-21.34,9.92-31.52,30.98-32.05c2.15-0.05,4.29-0.34,7.15-0.58c0-13.83-0.08-27.21,0.02-40.6
		c0.24-32.03,11.32-48.6,40.33-60.55c6.74,0,13.48,0,20.23,0c46.09,18.17,86.38,46.99,129.34,70.87
		c45.54,25.31,90.22,52.16,135.51,77.93c18.63,10.6,33.78,23.81,40.25,45.04C441.85,226.08,441.85,231.7,441.85,237.32z
		 M113.68,186.55c0-11.57,0.66-22.99-0.23-34.28c-0.6-7.66-6.64-11.63-14.12-11.87c-11.47-0.38-22.98-0.4-34.45-0.02
		c-7.87,0.26-13.84,4.5-14.42,12.58c-0.79,11.05-0.2,22.2-0.2,33.58C71.44,186.55,91.86,186.55,113.68,186.55z M114.25,270.93
		c-11.42,0-21.75,0-32.08,0c-10.52,0-21.04,0-32.19,0c0,11.49-0.39,21.83,0.12,32.12c0.42,8.6,5.92,13.97,14.68,14.32
		c11.47,0.47,22.98,0.47,34.44,0c9.07-0.37,14.52-5.94,14.93-15.04C114.6,292.32,114.25,282.26,114.25,270.93z"/>
	<linearGradient id="SVGID_2_" gradientUnits="userSpaceOnUse" x1="251.3407" y1="142.2245" x2="251.3407" y2="315.6089">
		<stop  offset="0" style="stop-color:#CD5C9F"/>
		<stop  offset="1" style="stop-color:#373676"/>
	</linearGradient>
	<path fill="url(#SVGID_2_)" d="M172.53,228.02c0-18.53-0.18-37.05,0.04-55.58c0.32-27.22,18.87-37.89,42.46-24.38
		c32.37,18.53,64.65,37.23,96.88,56.01c4.07,2.37,8.09,5.21,11.31,8.61c9.31,9.81,9.35,22.7-0.04,32.44
		c-3.63,3.76-8.21,6.79-12.77,9.45c-31.25,18.23-62.6,36.29-93.95,54.34c-3.39,1.95-6.91,3.85-10.59,5.07
		c-15.72,5.23-28.9-2.41-32.22-18.69c-0.83-4.09-1.07-8.35-1.1-12.53c-0.11-18.24-0.05-36.49-0.05-54.74
		C172.51,228.02,172.52,228.02,172.53,228.02z M184.31,228.7c0,18.79-0.14,37.59,0.04,56.38c0.18,18.11,9.26,23.36,24.91,14.38
		c32.33-18.54,64.61-37.18,96.83-55.92c16.3-9.48,16.41-19.73,0.3-29.1c-32.22-18.75-64.5-37.38-96.82-55.95
		c-16.12-9.26-25.09-4.04-25.24,14.67C184.19,191.68,184.31,210.19,184.31,228.7z"/>
</g>
<g id="Master_Layer_2">
</g>
</svg>
