<?xml version="1.0" encoding="utf-8"?>
<!-- Generator: Adobe Illustrator 23.0.3, SVG Export Plug-In . SVG Version: 6.00 Build 0)  -->
<svg version="1.1" id="Layer_1" xmlns="http://www.w3.org/2000/svg" xmlns:xlink="http://www.w3.org/1999/xlink" x="0px" y="0px"
	 viewBox="0 0 492 492" style="enable-background:new 0 0 492 492;" xml:space="preserve">
<style type="text/css">
	.st0{fill:url(#SVGID_1_);stroke:#C9C9C9;stroke-width:4;stroke-miterlimit:10;}
	.st1{fill:none;stroke:url(#SVGID_2_);stroke-width:8;stroke-miterlimit:10;}
	.st2{fill:none;stroke:url(#SVGID_3_);stroke-width:7;stroke-miterlimit:10;}
	.st3{fill:none;stroke:url(#SVGID_4_);stroke-width:7;stroke-miterlimit:10;}
	.st4{fill:none;stroke:url(#SVGID_5_);stroke-width:7;stroke-miterlimit:10;}
	.st5{fill:none;stroke:url(#SVGID_6_);stroke-width:8;stroke-miterlimit:10;}
	.st6{fill:none;stroke:url(#SVGID_7_);stroke-width:8;stroke-miterlimit:10;}
	.st7{fill:none;stroke:url(#SVGID_8_);stroke-width:8;stroke-miterlimit:10;}
	.st8{fill:none;stroke:url(#SVGID_9_);stroke-width:8;stroke-miterlimit:10;}
	.st9{fill:none;stroke:url(#SVGID_10_);stroke-width:8;stroke-miterlimit:10;}
	.st10{fill:none;stroke:url(#SVGID_11_);stroke-width:8;stroke-miterlimit:10;}
	.st11{fill:none;stroke:url(#SVGID_12_);stroke-width:8;stroke-miterlimit:10;}
</style>
<linearGradient id="SVGID_1_" gradientUnits="userSpaceOnUse" x1="246.44" y1="2.5417" x2="246.44" y2="489.4583">
	<stop  offset="1.821087e-07" style="stop-color:#F9F9F9"/>
	<stop  offset="1" style="stop-color:#D6D6D6"/>
</linearGradient>
<circle class="st0" cx="246.44" cy="246" r="243.46"/>
<g>
	
		<linearGradient id="SVGID_2_" gradientUnits="userSpaceOnUse" x1="673.5822" y1="414.5181" x2="673.5822" y2="172.8456" gradientTransform="matrix(-1 0 0 -1 913.9092 492)">
		<stop  offset="0" style="stop-color:#CD5C9F"/>
		<stop  offset="1" style="stop-color:#373676"/>
	</linearGradient>
	<path class="st1" d="M285.1,318.82c0,0-2.75-32.66,39.03-80.72c7.47-8.6,12.46-19.06,14.57-30.25c3.48-18.48,5.13-46.91-8.23-73.96
		c0,0-32.88-53.94-89.59-52.11l0,0c-57.09-4.9-90.68,52.11-90.68,52.11c-13.37,27.06-11.72,55.48-8.23,73.96
		c2.11,11.19,7.1,21.65,14.57,30.25c41.78,48.06,39.03,80.72,39.03,80.72"/>
	
		<linearGradient id="SVGID_3_" gradientUnits="userSpaceOnUse" x1="241.7346" y1="330.3193" x2="241.7346" y2="266.7711" gradientTransform="matrix(1 0 0 -1 0 492)">
		<stop  offset="0" style="stop-color:#CD5C9F"/>
		<stop  offset="1" style="stop-color:#373676"/>
	</linearGradient>
	
		<ellipse transform="matrix(0.1602 -0.9871 0.9871 0.1602 12.0562 401.08)" class="st2" cx="241.73" cy="193.45" rx="28.27" ry="28.27"/>
	
		<linearGradient id="SVGID_4_" gradientUnits="userSpaceOnUse" x1="81.179" y1="243.9152" x2="81.179" y2="201.3758" gradientTransform="matrix(1 0 0 -1 0 492)">
		<stop  offset="0" style="stop-color:#CD5C9F"/>
		<stop  offset="1" style="stop-color:#373676"/>
	</linearGradient>
	<circle class="st3" cx="81.18" cy="269.35" r="17.77"/>
	
		<linearGradient id="SVGID_5_" gradientUnits="userSpaceOnUse" x1="398.1202" y1="370.8461" x2="398.1202" y2="328.3067" gradientTransform="matrix(1 0 0 -1 0 492)">
		<stop  offset="0" style="stop-color:#CD5C9F"/>
		<stop  offset="1" style="stop-color:#373676"/>
	</linearGradient>
	<circle class="st4" cx="398.12" cy="142.42" r="17.77"/>
	
		<linearGradient id="SVGID_6_" gradientUnits="userSpaceOnUse" x1="176.7061" y1="158.3325" x2="306.7631" y2="158.3325" gradientTransform="matrix(1 0 0 -1 0 492)">
		<stop  offset="0" style="stop-color:#CD5C9F"/>
		<stop  offset="1" style="stop-color:#373676"/>
	</linearGradient>
	<path class="st5" d="M287.91,348.52h-92.36c-8.2,0-14.85-6.64-14.85-14.85l0,0c0-8.2,6.64-14.85,14.85-14.85h92.36
		c8.2,0,14.85,6.64,14.85,14.85l0,0C302.76,341.87,296.12,348.52,287.91,348.52z"/>
	
		<linearGradient id="SVGID_7_" gradientUnits="userSpaceOnUse" x1="176.7061" y1="128.3555" x2="306.7631" y2="128.3555" gradientTransform="matrix(1 0 0 -1 0 492)">
		<stop  offset="0" style="stop-color:#CD5C9F"/>
		<stop  offset="1" style="stop-color:#373676"/>
	</linearGradient>
	<path class="st6" d="M287.91,378.49h-92.36c-8.2,0-14.85-6.64-14.85-14.85l0,0c0-8.2,6.64-14.85,14.85-14.85h92.36
		c8.2,0,14.85,6.64,14.85,14.85l0,0C302.76,371.85,296.12,378.49,287.91,378.49z"/>
	
		<linearGradient id="SVGID_8_" gradientUnits="userSpaceOnUse" x1="176.7061" y1="98.3786" x2="306.7631" y2="98.3786" gradientTransform="matrix(1 0 0 -1 0 492)">
		<stop  offset="0" style="stop-color:#CD5C9F"/>
		<stop  offset="1" style="stop-color:#373676"/>
	</linearGradient>
	<path class="st7" d="M287.91,408.47h-92.36c-8.2,0-14.85-6.64-14.85-14.85l0,0c0-8.2,6.64-14.85,14.85-14.85h92.36
		c8.2,0,14.85,6.64,14.85,14.85l0,0C302.76,401.82,296.12,408.47,287.91,408.47z"/>
	
		<linearGradient id="SVGID_9_" gradientUnits="userSpaceOnUse" x1="209.0434" y1="66.8881" x2="272.6076" y2="66.8881" gradientTransform="matrix(1 0 0 -1 0 492)">
		<stop  offset="0" style="stop-color:#CD5C9F"/>
		<stop  offset="1" style="stop-color:#373676"/>
	</linearGradient>
	<path class="st8" d="M213.04,409.97c0,0,1.48,25.42,27.74,26.52c26.02,1.09,27.84-26.52,27.84-26.52"/>
	
		<linearGradient id="SVGID_10_" gradientUnits="userSpaceOnUse" x1="161.0252" y1="303.1239" x2="322.1569" y2="303.1239" gradientTransform="matrix(1 0 0 -1 0 492)">
		<stop  offset="0" style="stop-color:#CD5C9F"/>
		<stop  offset="1" style="stop-color:#373676"/>
	</linearGradient>
	<path class="st9" d="M256.88,244.77l-1.99,14.46c-0.51,3.72-3.69,6.49-7.45,6.49h-12.95c-3.56,0-6.63-2.5-7.36-5.98l-3.92-18.78
		c-0.55-2.66-3.61-3.93-5.89-2.45l-16.63,10.82c-2.73,1.78-6.33,1.43-8.68-0.84l-9.8-9.51c-2.52-2.44-2.83-6.37-0.73-9.19
		l11.03-14.81c2.08-2.8,0.75-6.82-2.6-7.8l-21.41-6.34c-2.06-0.61-3.47-2.51-3.47-4.65l-0.01-17.59c0-2.54,1.96-4.65,4.5-4.84
		l21.83-1.63c2.71-0.2,4.3-3.15,2.97-5.52l-11.43-20.47l0,0c-1.14-3.95-0.02-8.2,2.93-11.06l5.45-5.3
		c4.16-4.04,10.72-4.22,15.08-0.39l12.07,10.59c2.82,2.47,7.25,0.78,7.7-2.94l2.18-17.91c0.49-4.06,3.96-7.11,8.05-7.09l14.42,0.07
		c4.15,0.02,7.6,3.18,7.99,7.3l1.82,19.09c0.34,3.59,4.45,5.46,7.39,3.37l15.76-11.26c3.13-2.23,7.42-1.8,10.04,1.01l9.84,10.6
		c2.63,2.84,2.72,7.2,0.22,10.14l-14.02,16.48c-2.24,2.63-0.62,6.7,2.82,7.06l17.91,1.9c4.37,0.46,7.66,4.17,7.62,8.55l-0.12,12.46
		c-0.05,4.22-3.17,7.77-7.36,8.36l-15.09,2.08c-4.85,0.67-7.2,6.3-4.28,10.22l7.55,10.13c2.62,3.51,2.41,8.39-0.49,11.66l-6.49,7.31
		c-3.03,3.41-8.11,4.1-11.93,1.63l-14.45-9.36C262.03,238.61,257.44,240.71,256.88,244.77z"/>
	
		<linearGradient id="SVGID_11_" gradientUnits="userSpaceOnUse" x1="341.1481" y1="307.0723" x2="402.1202" y2="307.0723" gradientTransform="matrix(1 0 0 -1 0 492)">
		<stop  offset="0" style="stop-color:#CD5C9F"/>
		<stop  offset="1" style="stop-color:#373676"/>
	</linearGradient>
	<polyline class="st10" points="341.15,204.54 398.12,204.54 398.12,161.31 	"/>
	
		<linearGradient id="SVGID_12_" gradientUnits="userSpaceOnUse" x1="77.179" y1="265.5734" x2="139.5058" y2="265.5734" gradientTransform="matrix(1 0 0 -1 0 492)">
		<stop  offset="0" style="stop-color:#CD5C9F"/>
		<stop  offset="1" style="stop-color:#373676"/>
	</linearGradient>
	<polyline class="st11" points="139.51,205.27 81.18,205.27 81.18,251.58 	"/>
</g>
</svg>
