<?xml version="1.0" encoding="utf-8"?>
<!-- Generator: Adobe Illustrator 23.0.3, SVG Export Plug-In . SVG Version: 6.00 Build 0)  -->
<svg version="1.2" baseProfile="tiny" xmlns="http://www.w3.org/2000/svg" xmlns:xlink="http://www.w3.org/1999/xlink" x="0px"
	 y="0px" viewBox="0 0 492 492" xml:space="preserve">
<g id="Layer_1">
	<linearGradient id="SVGID_1_" gradientUnits="userSpaceOnUse" x1="33.3744" y1="385.1002" x2="459.3545" y2="385.1002">
		<stop  offset="0" style="stop-color:#CD5C9F"/>
		<stop  offset="1" style="stop-color:#373676"/>
	</linearGradient>
	<path fill="none" stroke="url(#SVGID_1_)" stroke-width="10" stroke-linecap="round" stroke-miterlimit="10" d="M178.6,397.55
		c-0.02-0.14-0.03-0.28-0.05-0.43c1.86-0.28,3.71-0.68,5.58-0.82c11.01-0.84,22.01-1.47,33.06-0.66c8.32,0.61,16.45,2.18,24.56,4.08
		c13.65,3.2,27.22,3.02,40.73-1.11c7.56-2.31,15.24-4.22,22.88-6.24c3.55-0.94,7.16-1.65,10.73-2.53c3.35-0.83,4.2-2.06,3.78-5.52
		c-0.43-3.57-1.94-6.65-4.91-8.73c-1.74-1.22-3.71-2.23-5.71-2.96c-5.37-1.95-10.98-2.84-16.66-3.22
		c-8.91-0.59-17.73,0.18-26.44,2.15c-7.78,1.77-15.61,2.44-23.56,1.34c-9.26-1.28-17.84-4.49-25.69-9.44
		c-8.99-5.67-17.85-11.56-26.66-17.52c-10.22-6.91-21.1-12.33-33.01-15.63c-11.73-3.25-23.66-4.51-35.83-3.86
		c-8.42,0.45-16.7,1.56-24.76,4.09c-18.83,5.89-37.68,11.76-56.52,17.64c-0.52,0.16-1.02,0.4-1.47,0.59
		c-0.5,5.06-0.27,67.37,0.27,69.13c0.7-0.07,1.41-0.11,2.12-0.23c11.19-1.89,22.4-3.63,33.74-4.37c8.76-0.57,17.44-0.19,25.98,1.83
		c31.02,7.35,62,14.84,93.02,22.18c9.4,2.23,18.68,5.06,28.32,6.16c10.35,1.19,20.4,0.2,30.02-4.15c2.83-1.28,5.76-2.38,8.73-3.3
		c27.03-8.34,54.08-16.61,81.11-24.94c34.66-10.69,69.44-21.02,103.81-32.64c2.62-0.88,5.05-2.36,7.48-3.71
		c1.52-0.84,1.43-1.63-0.11-2.58c-1.71-1.06-3.52-1.78-5.56-2.07c-4.99-0.71-9.95-1.59-15.02-1.1c-4.77,0.46-9.57,0.77-14.32,1.38
		c-7.29,0.93-14.62,1.73-21.8,3.2c-11.34,2.32-22.63,4.98-33.86,7.83c-17.58,4.46-35.16,8.93-52.59,13.94
		c-11.81,3.4-23.36,7.72-35.03,11.64c-3.89,1.31-7.88,2.06-11.98,2.24c-5.96,0.27-11.76-0.83-17.6-1.88
		c-12.89-2.32-25.81-4.52-38.74-6.67c-7.65-1.27-15.31-2.44-23.09-2.66C181.91,397.94,180.26,397.7,178.6,397.55z"/>
	<linearGradient id="SVGID_2_" gradientUnits="userSpaceOnUse" x1="33.0044" y1="81.2826" x2="459.8778" y2="81.2826">
		<stop  offset="0" style="stop-color:#CD5C9F"/>
		<stop  offset="1" style="stop-color:#373676"/>
	</linearGradient>
	<path fill="none" stroke="url(#SVGID_2_)" stroke-width="10" stroke-linecap="round" stroke-miterlimit="10" d="M257.2,12.76
		 M454.88,124.05c0-0.98,0-1.76,0-2.55c0-20.88,0-41.76,0-62.64c0-0.8,0-1.6-0.08-2.4c-0.27-2.81-1.62-3.82-4.37-3.22
		c-1.4,0.3-2.76,0.85-4.18,1.07c-13.68,2.16-27.39,3.79-41.29,3.1c-7.05-0.35-14.03-1.14-20.88-2.81
		c-21.42-5.22-42.82-10.54-64.25-15.75c-14.75-3.59-29.49-7.23-44.3-10.53c-10.9-2.43-21.7-1.9-32.31,2.09
		c-8.3,3.12-16.69,6.02-25.16,8.65C163.81,55.93,109.53,72.7,55.24,89.43c-5.44,1.68-10.71,3.71-15.79,6.27
		c-0.62,0.31-1.36,0.44-1.44,1.39c-0.08,1.04,0.68,1.31,1.32,1.78c2.3,1.68,5,1.96,7.7,2.37c4.84,0.73,9.69,1.19,14.57,0.58
		c5.71-0.71,11.43-1.38,17.11-2.25c10.42-1.59,20.89-2.98,31.23-5.06c25.17-5.05,49.88-11.93,74.4-19.48
		c11.22-3.46,22.28-7.45,33.42-11.16c4.5-1.5,9.15-2.18,13.91-2.24c5.67-0.07,11.08,1.29,16.52,2.62
		c15.55,3.8,31.27,6.59,47.28,7.57c4.15,0.26,8.3,0.5,12.43,0.9c1.8,0.18,3.71,0.16,5.36,1.28c-6.95,0.63-13.88,1.27-20.82,1.42
		c-17.28,0.39-34.31-1.54-51.05-5.91c-5.82-1.52-11.74-1.73-17.58-0.34c-12.82,3.05-25.6,6.28-38.39,9.48
		c-3.41,0.85-6.8,1.8-10.18,2.76c-2.29,0.65-3.29,1.88-3.07,3.94c0.53,5.18,2.68,9.43,7.67,11.59c2.85,1.23,5.81,2.33,8.84,2.98
		c11.16,2.37,22.37,2.31,33.59,0.29c4.79-0.86,9.57-1.99,14.4-2.44c10.99-1.03,21.57,0.96,31.42,5.91
		c5.84,2.94,11.44,6.4,16.96,9.92c7.15,4.55,14.06,9.47,21.18,14.07c8.5,5.49,17.52,9.96,27.37,12.5
		c7.82,2.02,15.75,3.47,23.82,4.16c12.3,1.06,24.48,0.47,36.35-3.07c7.27-2.17,14.39-4.84,21.55-7.35
		c11.17-3.92,22.42-7.54,34.21-9.15C451.24,124.53,452.96,124.31,454.88,124.05z"/>
	<linearGradient id="SVGID_3_" gradientUnits="userSpaceOnUse" x1="164.6144" y1="235.4978" x2="327.628" y2="235.4978">
		<stop  offset="0" style="stop-color:#CD5C9F"/>
		<stop  offset="1" style="stop-color:#373676"/>
	</linearGradient>
	<path fill="none" stroke="url(#SVGID_3_)" stroke-width="10" stroke-linecap="round" stroke-miterlimit="10" d="M245.81,312.02
		c-42.31-0.22-76.39-34.83-76.19-77.4c0.19-42.52,36.44-76.44,77.9-75.63c40.74,0.79,75.75,34.43,75.11,77.7
		C322,278.27,287.96,311.93,245.81,312.02z"/>
	<linearGradient id="SVGID_4_" gradientUnits="userSpaceOnUse" x1="246.1993" y1="198.4974" x2="246.1993" y2="272.749">
		<stop  offset="0" style="stop-color:#CD5C9F"/>
		<stop  offset="1" style="stop-color:#373676"/>
	</linearGradient>
	<path fill="url(#SVGID_4_)" d="M245.24,198.5c3.1,0,5.87,0,8.65,0c-0.14,1.24-0.32,2.34-0.38,3.45c-0.11,2.15,0.87,3.75,2.81,4.59
		c1.45,0.63,3.03,0.99,4.56,1.42c0.77,0.22,1.57,0.29,2.34,0.49c2.79,0.72,3.37,1.58,2.6,4.27c-0.66,2.29-1.5,4.52-2.34,7.02
		c-1.09-0.31-1.99-0.57-2.88-0.82c-3.08-0.84-6.15-1.74-9.25-2.49c-2.99-0.72-5.51,0.42-7.68,2.4c-1.35,1.23-1.46,2.2-0.71,3.87
		c0.65,1.43,1.63,2.57,3.01,3.31c2.4,1.28,4.83,2.49,7.21,3.79c2.38,1.3,4.87,2.48,7.05,4.06c7.91,5.73,9.19,15.45,3.22,23.2
		c-1.97,2.55-4.51,4.27-7.6,5.18c-0.92,0.27-1.87,0.44-2.78,0.74c-2.79,0.93-3.79,2.41-3.8,5.36c-0.01,1.41-0.16,2.81-0.26,4.39
		c-2.64,0-4.94,0-7.25,0c-0.98,0-1.48-0.51-1.54-1.45c-0.05-0.96-0.07-1.92-0.07-2.88c-0.01-2.55-1.17-4.16-3.65-4.97
		c-3.34-1.09-6.62-2.35-9.93-3.54c-0.37-0.13-0.72-0.33-1.39-0.64c1.04-3.21,2.08-6.43,3.18-9.82c2.49,0.7,4.78,1.35,7.07,1.98
		c2.39,0.66,4.78,1.28,7.17,1.94c3.86,1.06,6.62-0.95,9.2-3.34c0.94-0.86,0.87-2.02,0.32-3.11c-1.29-2.55-2.95-4.73-5.68-5.92
		c-2.34-1.02-4.74-1.97-6.95-3.23c-2.42-1.37-4.87-2.82-6.95-4.64c-7.03-6.14-5.47-17.2,0.85-22.2c2.17-1.71,4.6-2.84,7.26-3.57
		c3.4-0.93,3.8-1.48,4.1-4.93C244.87,201.17,245.07,199.91,245.24,198.5z"/>
</g>
<g id="Master_Layer_2">
</g>
</svg>
