<?xml version="1.0" encoding="utf-8"?>
<!-- Generator: Adobe Illustrator 23.0.3, SVG Export Plug-In . SVG Version: 6.00 Build 0)  -->
<svg version="1.2" baseProfile="tiny" xmlns="http://www.w3.org/2000/svg" xmlns:xlink="http://www.w3.org/1999/xlink" x="0px"
	 y="0px" viewBox="0 0 492 492" xml:space="preserve">
<g id="Layer_1">
	
		<linearGradient id="SVGID_1_" gradientUnits="userSpaceOnUse" x1="277.3301" y1="6.1547" x2="277.3301" y2="324.0956" gradientTransform="matrix(-1 0 0 1 521.9092 0)">
		<stop  offset="0" style="stop-color:#CD5C9F"/>
		<stop  offset="1" style="stop-color:#373676"/>
	</linearGradient>
	<path fill="none" stroke="url(#SVGID_1_)" stroke-width="8" stroke-miterlimit="10" d="M303.74,323.76c0,0-3.63-43.15,51.57-106.66
		c9.87-11.36,16.46-25.18,19.25-39.97c4.6-24.42,6.78-61.98-10.88-97.73c0,0-43.44-71.28-118.38-68.85l0,0
		C169.86,4.07,125.48,79.4,125.48,79.4c-17.66,35.75-15.48,73.31-10.88,97.73c2.79,14.79,9.38,28.61,19.25,39.97
		c55.2,63.5,51.57,106.66,51.57,106.66"/>
	<linearGradient id="SVGID_2_" gradientUnits="userSpaceOnUse" x1="246.44" y1="117.2441" x2="246.44" y2="198.9673">
		<stop  offset="0" style="stop-color:#CD5C9F"/>
		<stop  offset="1" style="stop-color:#373676"/>
	</linearGradient>
	<circle fill="none" stroke="url(#SVGID_2_)" stroke-width="7" stroke-miterlimit="10" cx="246.44" cy="158.11" r="37.36"/>
	<linearGradient id="SVGID_3_" gradientUnits="userSpaceOnUse" x1="34.291" y1="231.42" x2="34.291" y2="285.3794">
		<stop  offset="0" style="stop-color:#CD5C9F"/>
		<stop  offset="1" style="stop-color:#373676"/>
	</linearGradient>
	<circle fill="none" stroke="url(#SVGID_3_)" stroke-width="7" stroke-miterlimit="10" cx="34.29" cy="258.4" r="23.48"/>
	<linearGradient id="SVGID_4_" gradientUnits="userSpaceOnUse" x1="453.08" y1="63.7003" x2="453.08" y2="117.6597">
		<stop  offset="0" style="stop-color:#CD5C9F"/>
		<stop  offset="1" style="stop-color:#373676"/>
	</linearGradient>
	<circle fill="none" stroke="url(#SVGID_4_)" stroke-width="7" stroke-miterlimit="10" cx="453.08" cy="90.68" r="23.48"/>
	<linearGradient id="SVGID_5_" gradientUnits="userSpaceOnUse" x1="161.8" y1="343.38" x2="331.08" y2="343.38">
		<stop  offset="0" style="stop-color:#CD5C9F"/>
		<stop  offset="1" style="stop-color:#373676"/>
	</linearGradient>
	<path fill="none" stroke="url(#SVGID_5_)" stroke-width="8" stroke-miterlimit="10" d="M307.46,363H185.42
		c-10.84,0-19.62-8.78-19.62-19.62v0c0-10.84,8.78-19.62,19.62-19.62h122.04c10.84,0,19.62,8.78,19.62,19.62v0
		C327.08,354.22,318.3,363,307.46,363z"/>
	<linearGradient id="SVGID_6_" gradientUnits="userSpaceOnUse" x1="161.8" y1="382.9892" x2="331.08" y2="382.9892">
		<stop  offset="0" style="stop-color:#CD5C9F"/>
		<stop  offset="1" style="stop-color:#373676"/>
	</linearGradient>
	<path fill="none" stroke="url(#SVGID_6_)" stroke-width="8" stroke-miterlimit="10" d="M307.46,402.61H185.42
		c-10.84,0-19.62-8.78-19.62-19.62v0c0-10.84,8.78-19.62,19.62-19.62h122.04c10.84,0,19.62,8.78,19.62,19.62v0
		C327.08,393.83,318.3,402.61,307.46,402.61z"/>
	<linearGradient id="SVGID_7_" gradientUnits="userSpaceOnUse" x1="161.8" y1="422.5984" x2="331.08" y2="422.5984">
		<stop  offset="0" style="stop-color:#CD5C9F"/>
		<stop  offset="1" style="stop-color:#373676"/>
	</linearGradient>
	<path fill="none" stroke="url(#SVGID_7_)" stroke-width="8" stroke-miterlimit="10" d="M307.46,442.22H185.42
		c-10.84,0-19.62-8.78-19.62-19.62v0c0-10.84,8.78-19.62,19.62-19.62h122.04c10.84,0,19.62,8.78,19.62,19.62v0
		C327.08,433.43,318.3,442.22,307.46,442.22z"/>
	<linearGradient id="SVGID_8_" gradientUnits="userSpaceOnUse" x1="204.5267" y1="463.6095" x2="285.9514" y2="463.6095">
		<stop  offset="0" style="stop-color:#CD5C9F"/>
		<stop  offset="1" style="stop-color:#373676"/>
	</linearGradient>
	<path fill="none" stroke="url(#SVGID_8_)" stroke-width="8" stroke-miterlimit="10" d="M208.52,444.2c0,0,1.95,33.59,36.66,35.04
		c34.38,1.44,36.78-35.04,36.78-35.04"/>
	<linearGradient id="SVGID_9_" gradientUnits="userSpaceOnUse" x1="141.077" y1="152.0643" x2="351.4031" y2="152.0643">
		<stop  offset="0" style="stop-color:#CD5C9F"/>
		<stop  offset="1" style="stop-color:#373676"/>
	</linearGradient>
	<path fill="none" stroke="url(#SVGID_9_)" stroke-width="8" stroke-miterlimit="10" d="M266.45,225.92l-2.63,19.11
		c-0.68,4.91-4.88,8.57-9.84,8.57h-17.11c-4.7,0-8.76-3.3-9.72-7.9l-5.18-24.81c-0.73-3.52-4.77-5.19-7.78-3.24l-21.97,14.3
		c-3.61,2.35-8.37,1.89-11.47-1.11l-12.95-12.57c-3.33-3.23-3.74-8.42-0.97-12.14l14.57-19.57c2.75-3.7,0.99-9.01-3.43-10.31
		l-28.29-8.38c-2.72-0.81-4.59-3.31-4.59-6.14l-0.01-23.24c0-3.36,2.59-6.15,5.94-6.4l28.84-2.15c3.58-0.27,5.68-4.16,3.93-7.3
		l-15.1-27.05v0c-1.51-5.22-0.02-10.84,3.87-14.62l7.2-7c5.5-5.34,14.17-5.57,19.93-0.51l15.95,13.99
		c3.72,3.27,9.58,1.03,10.18-3.89l2.88-23.67c0.65-5.37,5.23-9.4,10.64-9.37l19.05,0.09c5.48,0.03,10.04,4.2,10.56,9.65l2.4,25.23
		c0.45,4.75,5.88,7.22,9.76,4.45l20.83-14.88c4.13-2.95,9.81-2.38,13.26,1.34l13,14c3.48,3.75,3.6,9.51,0.29,13.4l-18.53,21.77
		c-2.96,3.48-0.82,8.85,3.72,9.33l23.67,2.51c5.77,0.61,10.12,5.51,10.07,11.3l-0.16,16.46c-0.06,5.58-4.19,10.27-9.72,11.04
		l-19.94,2.75c-6.41,0.88-9.52,8.32-5.65,13.5l9.98,13.38c3.46,4.64,3.19,11.08-0.65,15.41l-8.58,9.66
		c-4.01,4.51-10.71,5.42-15.77,2.15l-19.1-12.37C273.26,217.77,267.19,220.55,266.45,225.92z"/>
	<linearGradient id="SVGID_10_" gradientUnits="userSpaceOnUse" x1="377.8013" y1="146.2" x2="457.08" y2="146.2">
		<stop  offset="0" style="stop-color:#CD5C9F"/>
		<stop  offset="1" style="stop-color:#373676"/>
	</linearGradient>
	<polyline fill="none" stroke="url(#SVGID_10_)" stroke-width="8" stroke-miterlimit="10" points="377.8,172.76 453.08,172.76 
		453.08,115.64 	"/>
	<linearGradient id="SVGID_11_" gradientUnits="userSpaceOnUse" x1="30.291" y1="202.32" x2="111.3569" y2="202.32">
		<stop  offset="0" style="stop-color:#CD5C9F"/>
		<stop  offset="1" style="stop-color:#373676"/>
	</linearGradient>
	<polyline fill="none" stroke="url(#SVGID_11_)" stroke-width="8" stroke-miterlimit="10" points="111.36,173.72 34.29,173.72 
		34.29,234.92 	"/>
</g>
<g id="Master_Layer_2">
</g>
</svg>
