<?xml version="1.0" encoding="utf-8"?>
<!-- Generator: Adobe Illustrator 23.0.3, SVG Export Plug-In . SVG Version: 6.00 Build 0)  -->
<svg version="1.2" baseProfile="tiny" xmlns="http://www.w3.org/2000/svg" xmlns:xlink="http://www.w3.org/1999/xlink" x="0px"
	 y="0px" viewBox="0 0 492 492" xml:space="preserve">
<g id="Layer_1">
	<linearGradient id="SVGID_1_" gradientUnits="userSpaceOnUse" x1="99.3307" y1="43.7413" x2="99.3307" y2="255.2812">
		<stop  offset="0" style="stop-color:#CD5C9F"/>
		<stop  offset="1" style="stop-color:#373676"/>
	</linearGradient>
	<path fill="none" stroke="url(#SVGID_1_)" stroke-width="10" stroke-miterlimit="10" d="M120.95,47.45c0,0-97.9,88.29,1.14,204.58"
		/>
	<linearGradient id="SVGID_2_" gradientUnits="userSpaceOnUse" x1="142.2481" y1="79.0789" x2="142.2481" y2="221.3017">
		<stop  offset="0" style="stop-color:#CD5C9F"/>
		<stop  offset="1" style="stop-color:#373676"/>
	</linearGradient>
	<path fill="none" stroke="url(#SVGID_2_)" stroke-width="10" stroke-miterlimit="10" d="M156.74,82.79c0,0-64.73,58.37,0.75,135.27
		"/>
	<linearGradient id="SVGID_3_" gradientUnits="userSpaceOnUse" x1="179.8656" y1="110.7703" x2="179.8656" y2="190.3817">
		<stop  offset="0" style="stop-color:#CD5C9F"/>
		<stop  offset="1" style="stop-color:#373676"/>
	</linearGradient>
	<path fill="none" stroke="url(#SVGID_3_)" stroke-width="10" stroke-miterlimit="10" d="M187.93,114.48c0,0-34.77,31.35,0.4,72.66"
		/>
	
		<linearGradient id="SVGID_4_" gradientUnits="userSpaceOnUse" x1="-6742.4575" y1="43.7413" x2="-6742.4575" y2="255.2812" gradientTransform="matrix(-1 0 0 1 -6356.9751 0)">
		<stop  offset="0" style="stop-color:#CD5C9F"/>
		<stop  offset="1" style="stop-color:#373676"/>
	</linearGradient>
	<path fill="none" stroke="url(#SVGID_4_)" stroke-width="10" stroke-miterlimit="10" d="M363.86,47.45c0,0,97.9,88.29-1.14,204.58"
		/>
	
		<linearGradient id="SVGID_5_" gradientUnits="userSpaceOnUse" x1="-6699.54" y1="79.0789" x2="-6699.54" y2="221.3017" gradientTransform="matrix(-1 0 0 1 -6356.9751 0)">
		<stop  offset="0" style="stop-color:#CD5C9F"/>
		<stop  offset="1" style="stop-color:#373676"/>
	</linearGradient>
	<path fill="none" stroke="url(#SVGID_5_)" stroke-width="10" stroke-miterlimit="10" d="M328.07,82.79c0,0,64.73,58.37-0.75,135.27
		"/>
	
		<linearGradient id="SVGID_6_" gradientUnits="userSpaceOnUse" x1="-6661.9224" y1="110.7703" x2="-6661.9224" y2="190.3817" gradientTransform="matrix(-1 0 0 1 -6356.9751 0)">
		<stop  offset="0" style="stop-color:#CD5C9F"/>
		<stop  offset="1" style="stop-color:#373676"/>
	</linearGradient>
	<path fill="none" stroke="url(#SVGID_6_)" stroke-width="10" stroke-miterlimit="10" d="M296.89,114.48c0,0,34.77,31.35-0.4,72.66"
		/>
	<linearGradient id="SVGID_7_" gradientUnits="userSpaceOnUse" x1="242.3972" y1="176.7344" x2="242.3972" y2="494.5574">
		<stop  offset="0" style="stop-color:#CD5C9F"/>
		<stop  offset="1" style="stop-color:#373676"/>
	</linearGradient>
	<polyline fill="none" stroke="url(#SVGID_7_)" stroke-width="9" stroke-miterlimit="10" points="146.59,493.45 152.72,467.28 
		224.1,181.39 259.71,182.9 338.23,493.45 	"/>
	<linearGradient id="SVGID_8_" gradientUnits="userSpaceOnUse" x1="234.4185" y1="218.6073" x2="234.4185" y2="471.4944">
		<stop  offset="0" style="stop-color:#CD5C9F"/>
		<stop  offset="1" style="stop-color:#373676"/>
	</linearGradient>
	<path fill="none" stroke="url(#SVGID_8_)" stroke-width="9" stroke-miterlimit="10" d="M154.1,467.48l152.1-77.04l-116.86-50.83
		c-1.44-0.63-1.59-2.61-0.27-3.45l88.68-56.2l-64.79-58"/>
	<linearGradient id="SVGID_9_" gradientUnits="userSpaceOnUse" x1="241.6075" y1="119.3783" x2="241.6075" y2="187.6481">
		<stop  offset="0" style="stop-color:#CD5C9F"/>
		<stop  offset="1" style="stop-color:#373676"/>
	</linearGradient>
	<circle fill="none" stroke="url(#SVGID_9_)" stroke-width="9" stroke-miterlimit="10" cx="241.61" cy="153.51" r="29.63"/>
	<g>
		
			<linearGradient id="SVGID_10_" gradientUnits="userSpaceOnUse" x1="373.3277" y1="33.7902" x2="373.3277" y2="79.2129" gradientTransform="matrix(0.9975 0.0707 -0.0707 0.9975 4.9182 -26.5022)">
			<stop  offset="0" style="stop-color:#CD5C9F"/>
			<stop  offset="1" style="stop-color:#373676"/>
		</linearGradient>
		
			<line fill="none" stroke="url(#SVGID_10_)" stroke-width="9" stroke-miterlimit="10" x1="349.57" y1="73.92" x2="397.06" y2="38.58"/>
		
			<linearGradient id="SVGID_11_" gradientUnits="userSpaceOnUse" x1="372.936" y1="34.1198" x2="372.936" y2="83.3873" gradientTransform="matrix(0.9975 0.0707 -0.0707 0.9975 4.9182 -26.5022)">
			<stop  offset="0" style="stop-color:#CD5C9F"/>
			<stop  offset="1" style="stop-color:#373676"/>
		</linearGradient>
		
			<line fill="none" stroke="url(#SVGID_11_)" stroke-width="9" stroke-miterlimit="10" x1="391.45" y1="81.4" x2="354.09" y2="35.54"/>
		
			<linearGradient id="SVGID_12_" gradientUnits="userSpaceOnUse" x1="374.2223" y1="23.406" x2="374.2223" y2="91.6757" gradientTransform="matrix(0.9975 0.0707 -0.0707 0.9975 4.9182 -26.5022)">
			<stop  offset="0" style="stop-color:#CD5C9F"/>
			<stop  offset="1" style="stop-color:#373676"/>
		</linearGradient>
		<circle fill="none" stroke="url(#SVGID_12_)" stroke-width="9" stroke-miterlimit="10" cx="374.14" cy="57.35" r="29.63"/>
	</g>
</g>
<g id="Master_Layer_2">
</g>
</svg>
