<svg id="Layer_1" data-name="Layer 1" xmlns="http://www.w3.org/2000/svg" viewBox="0 0 119.06 119.06"><defs><style>.cls-1{fill:#444545;}</style></defs><title>Artboard 1</title><path class="cls-1" d="M74.23,44.46H44.83a.89.89,0,0,0-.89.89v10.3a5.82,5.82,0,0,0,5.81,5.82H69.3a5.83,5.83,0,0,0,5.82-5.82V45.35A.89.89,0,0,0,74.23,44.46ZM71.58,57a2.25,2.25,0,0,1-2.25,2.26H49.81A2.26,2.26,0,0,1,47.56,57V56h24Zm-1.32-5.39a1.42,1.42,0,1,1,1.42-1.41A1.42,1.42,0,0,1,70.26,51.57Z"/><path class="cls-1" d="M73.38,74a1.54,1.54,0,0,1-1-.35l-3.56-3a1.5,1.5,0,0,1,1.93-2.3l3.56,3a1.5,1.5,0,0,1-1,2.65Z"/><path class="cls-1" d="M59.49,74.6A1.5,1.5,0,0,1,58,73.1V69.53a1.5,1.5,0,0,1,3,0V73.1A1.5,1.5,0,0,1,59.49,74.6Z"/><path class="cls-1" d="M45.88,74a1.5,1.5,0,0,1-1-2.65l3.56-3a1.5,1.5,0,1,1,1.93,2.3l-3.56,3A1.54,1.54,0,0,1,45.88,74Z"/></svg>