<svg id="Layer_1" data-name="Layer 1" xmlns="http://www.w3.org/2000/svg" viewBox="0 0 119.06 119.06"><defs><style>.cls-1{fill:#454546;}</style></defs><title>Artboard 1 copy 12</title><path class="cls-1" d="M67.58,72.75a4.85,4.85,0,0,0,2.59.85,2.37,2.37,0,0,0,2-.85c.19-2,.31-4.75.39-7.72H69.13Z"/><path class="cls-1" d="M52.09,72.75a4.85,4.85,0,0,1-2.59.85,2.37,2.37,0,0,1-2-.85c-.19-2-.31-4.75-.39-7.72h3.43Z"/><path class="cls-1" d="M72.68,50.56H63.23a17.13,17.13,0,0,0,5.16,12.2h4.29c-.05-4.79,0-9,0-12.2"/><path class="cls-1" d="M47,50.56h9.45a17.13,17.13,0,0,1-5.16,12.2H47c0-4.79,0-9,0-12.2"/><rect class="cls-1" x="43.94" y="45.46" width="31.18" height="2.83" rx="1.42"/></svg>