<svg id="Layer_1" data-name="Layer 1" xmlns="http://www.w3.org/2000/svg" viewBox="0 0 119.06 119.06"><defs><style>.cls-1{fill:#454546;}</style></defs><title>Artboard 1 copy 13</title><path class="cls-1" d="M60.66,72.69a3.88,3.88,0,0,1,1.1.31c1.8.83,2.39.63,3.56-.09a3.94,3.94,0,0,1,3.56.1c.66.38,1.74,1.25,3.55-.3V50.56H60.66Z"/><path class="cls-1" d="M58.39,72.69a4.07,4.07,0,0,0-1.1.31c-1.79.83-2.38.63-3.55-.09a3.94,3.94,0,0,0-3.56.1c-.67.38-1.74,1.25-3.55-.3V50.56H58.39Z"/><rect class="cls-1" x="43.94" y="45.46" width="31.18" height="2.83" rx="1.42"/></svg>