<svg id="Layer_1" data-name="Layer 1" xmlns="http://www.w3.org/2000/svg" viewBox="0 0 119.06 119.06"><defs><style>.cls-1{fill:#444545;}</style></defs><title>Artboard 1</title><path class="cls-1" d="M59.52,60a2.68,2.68,0,1,1,2.69-2.68A2.68,2.68,0,0,1,59.52,60Z"/><path class="cls-1" d="M56,61.05a5.59,5.59,0,0,0,7,0l2.71,10.08-.34.37a8,8,0,0,1-11.71,0l-.34-.37Z"/><path class="cls-1" d="M64.5,58.47a5.64,5.64,0,0,0-.68-3.63A5.55,5.55,0,0,0,61,52.44l7.38-7.39.49.11A8,8,0,0,1,74.74,55.3l-.16.48Z"/><path class="cls-1" d="M58,52.44a5.56,5.56,0,0,0-3.48,6L44.47,55.78l-.15-.48a8,8,0,0,1,5.85-10.15l.5-.1Z"/></svg>