<svg id="Layer_1" data-name="Layer 1" xmlns="http://www.w3.org/2000/svg" viewBox="0 0 119.06 119.06"><defs><style>.cls-1,.cls-2{fill:#444545;}.cls-1{fill-rule:evenodd;}</style></defs><title>Artboard 1</title><path class="cls-1" d="M73.61,75.12h1.47l-2.83-4.05-2.84,4.05h4.2Z"/><path class="cls-2" d="M59.53,60a2.68,2.68,0,1,1,2.68-2.68A2.68,2.68,0,0,1,59.53,60Z"/><path class="cls-2" d="M56.05,61.05a5.59,5.59,0,0,0,7,0l2.71,10.08-.34.37a8,8,0,0,1-11.71,0l-.34-.37Z"/><path class="cls-2" d="M64.51,58.47a5.58,5.58,0,0,0-.69-3.63,5.49,5.49,0,0,0-2.8-2.4l7.38-7.39.49.11A8,8,0,0,1,74.75,55.3l-.16.48Z"/><path class="cls-2" d="M58.05,52.44a5.56,5.56,0,0,0-3.48,6L44.48,55.78l-.16-.48a8.05,8.05,0,0,1,5.86-10.15l.5-.1Z"/></svg>