<svg id="Layer_1" data-name="Layer 1" xmlns="http://www.w3.org/2000/svg" viewBox="0 0 119.06 119.06"><defs><style>.cls-1{fill:#444545;}</style></defs><title>Artboard 1</title><path class="cls-1" d="M59.53,43.94a9.6,9.6,0,0,0-9.61,9.6c0,4.59,4.4,9.76,4.78,14.3a.68.68,0,0,0,.68.62h8.3a.68.68,0,0,0,.68-.62c.37-4.66,4.77-9.7,4.77-14.3A9.6,9.6,0,0,0,59.53,43.94Z"/><path class="cls-1" d="M63.51,70.72h-8a.69.69,0,0,0-.68.81l.14,1a3.19,3.19,0,0,0,3.14,2.63h2.76A3.18,3.18,0,0,0,64,72.49l.15-1A.69.69,0,0,0,63.51,70.72Z"/></svg>