<svg id="Layer_1" data-name="Layer 1" xmlns="http://www.w3.org/2000/svg" viewBox="0 0 119.06 119.06"><defs><style>.cls-1{fill:#454546;}</style></defs><title>Artboard 1</title><path class="cls-1" d="M45.37,68.6a1,1,0,0,1-.47-.48,1.38,1.38,0,0,1-.19-.71,1.4,1.4,0,0,1,.27-.86.82.82,0,0,1,.7-.37.89.89,0,0,1,.45.12,9.52,9.52,0,0,0,4.67,1.19c2.76,0,4.14-1.11,4.14-3.35a2.07,2.07,0,0,0-.53-1.46,3.69,3.69,0,0,0-1.32-.92c-.52-.22-1.26-.49-2.22-.8a25,25,0,0,1-3.11-1.18,5.43,5.43,0,0,1-2-1.71,4.94,4.94,0,0,1-.86-3,6.47,6.47,0,0,1,.71-3,5.45,5.45,0,0,1,2.1-2.16,6.57,6.57,0,0,1,3.33-.8,11.2,11.2,0,0,1,4.71,1,1.15,1.15,0,0,1,.67,1.17,1.52,1.52,0,0,1-.26.85.82.82,0,0,1-.69.38.94.94,0,0,1-.38-.12,9.7,9.7,0,0,0-3.81-.79,4.93,4.93,0,0,0-3,.88A2.88,2.88,0,0,0,47,54.83a2.52,2.52,0,0,0,.56,1.71,3.78,3.78,0,0,0,1.39,1,19.38,19.38,0,0,0,2.29.77,20.64,20.64,0,0,1,3,1.11,5.11,5.11,0,0,1,2,1.72,5.45,5.45,0,0,1,.82,3.15,5.8,5.8,0,0,1-.76,2.94,5.28,5.28,0,0,1-2.14,2A6.59,6.59,0,0,1,51,70,11.73,11.73,0,0,1,45.37,68.6Z"/><path class="cls-1" d="M51,70.87a12.45,12.45,0,0,1-6-1.49,1.82,1.82,0,0,1-.8-.8,2.3,2.3,0,0,1-.31-1.17A2.33,2.33,0,0,1,44.39,66a1.59,1.59,0,0,1,2.07-.47,8.9,8.9,0,0,0,4.34,1.11c3,0,3.37-1.33,3.37-2.49a1.14,1.14,0,0,0-.3-.84,2.83,2.83,0,0,0-1-.73c-.5-.22-1.23-.48-2.17-.78a26.86,26.86,0,0,1-3.19-1.22,6.26,6.26,0,0,1-2.32-2,5.82,5.82,0,0,1-1-3.59,7.35,7.35,0,0,1,.82-3.45,6.14,6.14,0,0,1,2.41-2.49,7.22,7.22,0,0,1,3.68-.9,11.88,11.88,0,0,1,5,1,2,2,0,0,1,1.14,2,2.34,2.34,0,0,1-.42,1.37,1.57,1.57,0,0,1-1.3.72,1.53,1.53,0,0,1-.69-.19,8.91,8.91,0,0,0-3.5-.72,4.33,4.33,0,0,0-2.62.73,2,2,0,0,0-.83,1.74,1.64,1.64,0,0,0,.34,1.11,2.89,2.89,0,0,0,1.12.81,19.45,19.45,0,0,0,2.2.75,20.59,20.59,0,0,1,3.13,1.15,5.78,5.78,0,0,1,2.27,2,6.33,6.33,0,0,1,1,3.68A6.61,6.61,0,0,1,57,67.72a6,6,0,0,1-2.45,2.33A7.35,7.35,0,0,1,51,70.87ZM45.68,67a.1.1,0,0,0-.11.06.46.46,0,0,0-.09.31.47.47,0,0,0,.07.25.31.31,0,0,0,.14.16h0A11.22,11.22,0,0,0,51,69.14a6,6,0,0,0,2.84-.64,4.41,4.41,0,0,0,1.82-1.73,4.68,4.68,0,0,0,.64-2.46,4.49,4.49,0,0,0-.66-2.62A4.34,4.34,0,0,0,54,60.23a20.48,20.48,0,0,0-2.92-1.07,18.67,18.67,0,0,1-2.36-.8A4.53,4.53,0,0,1,47,57.13a3.44,3.44,0,0,1-.77-2.3,3.79,3.79,0,0,1,1.51-3.17,5.68,5.68,0,0,1,3.48-1,10.35,10.35,0,0,1,4.08.84l.16.07a.62.62,0,0,0,.13-.37c0-.29-.07-.32-.18-.36A10.41,10.41,0,0,0,51,49.91a5.87,5.87,0,0,0-3,.71,4.41,4.41,0,0,0-1.78,1.83A5.4,5.4,0,0,0,45.64,55a4,4,0,0,0,.68,2.48A4.55,4.55,0,0,0,48.07,59a23.31,23.31,0,0,0,3,1.15c1,.32,1.75.59,2.29.83A4.45,4.45,0,0,1,55,62.06a3,3,0,0,1,.76,2.08c0,1.57-.64,4.22-4.91,4.22a10.33,10.33,0,0,1-5-1.29A.23.23,0,0,0,45.68,67Z"/><path class="cls-1" d="M69.73,69.48a1.39,1.39,0,0,1-.31-.93v-4H62.19a1.24,1.24,0,0,1-1-.48,1.8,1.8,0,0,1-.4-1.19v-.26a1.87,1.87,0,0,1,.28-1l7.44-11.7a1.39,1.39,0,0,1,.51-.51,1.3,1.3,0,0,1,.68-.19h.47a1.23,1.23,0,0,1,1,.48,1.9,1.9,0,0,1,.38,1.21V62.21h1.8a.84.84,0,0,1,.68.35,1.33,1.33,0,0,1,.29.85,1.23,1.23,0,0,1-.29.83.86.86,0,0,1-.68.34h-1.8v4a1.4,1.4,0,0,1-.32.93,1,1,0,0,1-.77.38A1,1,0,0,1,69.73,69.48Zm-6.61-7.27h6.3v-10Z"/><path class="cls-1" d="M70.49,70.72a1.68,1.68,0,0,1-1.33-.66,2.37,2.37,0,0,1-.51-1.51V65.44H62.19a2,2,0,0,1-1.53-.75,2.74,2.74,0,0,1-.61-1.78v-.26a2.81,2.81,0,0,1,.43-1.56L67.92,49.4a2.3,2.3,0,0,1,.77-.78,2.06,2.06,0,0,1,1-.28h.47a1.91,1.91,0,0,1,1.57.77,2.8,2.8,0,0,1,.58,1.78V61.35h1a1.59,1.59,0,0,1,1.26.64,2.23,2.23,0,0,1,.48,1.42,2.12,2.12,0,0,1-.5,1.42,1.58,1.58,0,0,1-1.24.61h-1v3.11a2.36,2.36,0,0,1-.53,1.52A1.7,1.7,0,0,1,70.49,70.72Zm-.76-20.66a.65.65,0,0,0-.32.09.58.58,0,0,0-.22.22L61.73,62.1a.94.94,0,0,0-.14.55v.26a.92.92,0,0,0,.19.6.54.54,0,0,0,.41.21h8v4.83a.48.48,0,0,0,.11.35c.14.17.24.17.4,0a.52.52,0,0,0,.11-.34V63.72h2.57a.14.14,0,0,0,.13-.07.35.35,0,0,0,.07-.24.4.4,0,0,0-.08-.27c-.06-.07-.09-.07-.12-.07H70.81V50.89a1,1,0,0,0-.19-.64.47.47,0,0,0-.42-.19h0v13H61.63l8.2-13ZM64.6,61.35h4.05V54.92Z"/></svg>