<svg id="Layer_1" data-name="Layer 1" xmlns="http://www.w3.org/2000/svg" viewBox="0 0 119.06 119.06"><defs><style>.cls-1{fill:#454546;}</style></defs><title>Artboard 1</title><path class="cls-1" d="M45.42,68.79a1.16,1.16,0,0,1-.49-.49A1.48,1.48,0,0,1,45,66.69a.87.87,0,0,1,.73-.37,1,1,0,0,1,.46.12A10,10,0,0,0,51,67.66q4.28,0,4.28-3.43a2.11,2.11,0,0,0-.55-1.49,3.78,3.78,0,0,0-1.36-.93A23.61,23.61,0,0,0,51.1,61a26.19,26.19,0,0,1-3.21-1.21A5.72,5.72,0,0,1,45.79,58a5,5,0,0,1-.89-3.1,6.46,6.46,0,0,1,.74-3.08,5.43,5.43,0,0,1,2.17-2.21,6.87,6.87,0,0,1,3.44-.82,11.65,11.65,0,0,1,4.87,1A1.16,1.16,0,0,1,56.81,51a1.46,1.46,0,0,1-.27.86.83.83,0,0,1-.71.39.93.93,0,0,1-.39-.12,10.21,10.21,0,0,0-3.95-.8,5.1,5.1,0,0,0-3.14.89,2.94,2.94,0,0,0-1.22,2.5,2.52,2.52,0,0,0,.58,1.74,3.84,3.84,0,0,0,1.44,1.05,19.66,19.66,0,0,0,2.37.79,20.24,20.24,0,0,1,3.12,1.13,5.28,5.28,0,0,1,2,1.75,5.44,5.44,0,0,1,.85,3.22,5.84,5.84,0,0,1-.78,3,5.52,5.52,0,0,1-2.21,2.07,7,7,0,0,1-3.28.74A12.35,12.35,0,0,1,45.42,68.79Z"/><path class="cls-1" d="M51.25,71.1a13.18,13.18,0,0,1-6.17-1.51,2,2,0,0,1-.82-.82,2.45,2.45,0,0,1,.14-2.64,1.68,1.68,0,0,1,2.15-.49A9.21,9.21,0,0,0,51,66.78c3.09,0,3.49-1.36,3.49-2.55a1.21,1.21,0,0,0-.31-.86,3.14,3.14,0,0,0-1.09-.74c-.51-.22-1.27-.49-2.24-.8a26.12,26.12,0,0,1-3.3-1.24,6.43,6.43,0,0,1-2.4-2,5.89,5.89,0,0,1-1.07-3.66A7.48,7.48,0,0,1,45,51.41a6.33,6.33,0,0,1,2.49-2.54A7.59,7.59,0,0,1,51.25,48a12.56,12.56,0,0,1,5.17,1,2,2,0,0,1,1.18,2,2.39,2.39,0,0,1-.43,1.4,1.54,1.54,0,0,1-2.05.54,9.38,9.38,0,0,0-3.63-.73,4.5,4.5,0,0,0-2.7.74,2,2,0,0,0-.86,1.77,1.68,1.68,0,0,0,.36,1.14,3.07,3.07,0,0,0,1.15.83,18.75,18.75,0,0,0,2.27.75A22.5,22.5,0,0,1,55,58.63a6,6,0,0,1,2.35,2,6.43,6.43,0,0,1,1,3.76,6.72,6.72,0,0,1-.91,3.48,6.31,6.31,0,0,1-2.53,2.38A7.73,7.73,0,0,1,51.25,71.1Zm-5.51-3.9a.13.13,0,0,0-.12,0,.57.57,0,0,0-.09.32.51.51,0,0,0,.07.26.36.36,0,0,0,.15.16h0a11.7,11.7,0,0,0,5.49,1.34,6.28,6.28,0,0,0,2.94-.66,4.57,4.57,0,0,0,1.88-1.76,4.77,4.77,0,0,0,.65-2.51,4.56,4.56,0,0,0-.67-2.67,4.41,4.41,0,0,0-1.72-1.49,20.45,20.45,0,0,0-3-1.09,20.69,20.69,0,0,1-2.44-.82,4.73,4.73,0,0,1-1.74-1.26,3.46,3.46,0,0,1-.79-2.35A3.84,3.84,0,0,1,47.9,51.5a5.94,5.94,0,0,1,3.59-1,10.88,10.88,0,0,1,4.23.86c.12.06.15.06.16.06A.62.62,0,0,0,56,51c0-.3-.07-.33-.18-.37a11,11,0,0,0-4.58-.93,6.23,6.23,0,0,0-3.08.72,4.66,4.66,0,0,0-1.84,1.87,5.42,5.42,0,0,0-.63,2.64,4,4,0,0,0,.7,2.53A4.71,4.71,0,0,0,48.21,59a24.61,24.61,0,0,0,3.11,1.17c1,.33,1.81.61,2.37.85a4.74,4.74,0,0,1,1.63,1.12,3.06,3.06,0,0,1,.79,2.12c0,1.61-.66,4.31-5.08,4.31a10.77,10.77,0,0,1-5.18-1.31A.2.2,0,0,0,45.74,67.2Z"/><path class="cls-1" d="M62.74,69.49a1.65,1.65,0,0,1-.37-1.12,5.68,5.68,0,0,1,.75-2.86,9.49,9.49,0,0,1,1.81-2.3c.71-.67,1.64-1.46,2.8-2.37,1-.78,1.79-1.43,2.38-2a7.87,7.87,0,0,0,1.47-1.76,3.79,3.79,0,0,0,.59-2A3.36,3.36,0,0,0,68.3,51.4a8.62,8.62,0,0,0-4.19,1.07.92.92,0,0,1-.47.15.82.82,0,0,1-.66-.33,1.27,1.27,0,0,1-.27-.83,1.24,1.24,0,0,1,.54-1.11,10.32,10.32,0,0,1,5.44-1.52,5.58,5.58,0,0,1,2.85.76,5.5,5.5,0,0,1,2,2.13,6.92,6.92,0,0,1-.1,6.42,11.61,11.61,0,0,1-2,2.64c-.79.75-1.81,1.63-3.07,2.62s-2,1.68-2.58,2.25a5,5,0,0,0-1.21,1.74h8.52a.93.93,0,0,1,.75.37,1.41,1.41,0,0,1,.31.91,1.32,1.32,0,0,1-.31.89,1,1,0,0,1-.75.36H63.67A1.15,1.15,0,0,1,62.74,69.49Z"/><path class="cls-1" d="M73.12,70.8H63.67a1.9,1.9,0,0,1-1.51-.71h0a2.6,2.6,0,0,1-.59-1.72,6.69,6.69,0,0,1,.87-3.32,11.1,11.1,0,0,1,2-2.52c.73-.68,1.69-1.49,2.86-2.41,1-.76,1.76-1.41,2.33-1.93a7.44,7.44,0,0,0,1.32-1.57,2.86,2.86,0,0,0,.45-1.53A2.92,2.92,0,0,0,70.69,53a3.18,3.18,0,0,0-2.39-.74,8,8,0,0,0-3.84,1,1.59,1.59,0,0,1-2.07-.38,2.19,2.19,0,0,1-.47-1.42,2.15,2.15,0,0,1,.92-1.86A11,11,0,0,1,68.69,48a6.22,6.22,0,0,1,5.57,3.31,7.47,7.47,0,0,1,.86,3.61,7.55,7.55,0,0,1-1,3.73A12,12,0,0,1,72,61.44c-.8.77-1.85,1.67-3.12,2.68-1.11.9-2,1.64-2.52,2.19-.07.07-.14.13-.2.2h7a1.71,1.71,0,0,1,1.34.66,2.37,2.37,0,0,1,.51,1.5,2.28,2.28,0,0,1-.52,1.5A1.74,1.74,0,0,1,73.12,70.8ZM68.3,50.52a4.58,4.58,0,0,1,3.51,1.25,5.1,5.1,0,0,1,.43,5.84,9.23,9.23,0,0,1-1.62,1.94c-.6.55-1.42,1.22-2.43,2s-2,1.67-2.75,2.32A9,9,0,0,0,63.79,66a4.72,4.72,0,0,0-.63,2.39.73.73,0,0,0,.16.52h0a.39.39,0,0,0,.35.15h9.45a.19.19,0,0,0,.17-.08.36.36,0,0,0,.09-.29.48.48,0,0,0-.1-.32.18.18,0,0,0-.16-.08H63.4l.47-1.22A5.8,5.8,0,0,1,65.28,65c.6-.58,1.49-1.35,2.64-2.3s2.25-1.84,3-2.57a10.82,10.82,0,0,0,1.87-2.44,5.57,5.57,0,0,0,.73-2.8,5.45,5.45,0,0,0-.64-2.7,4.55,4.55,0,0,0-1.72-1.81,4.77,4.77,0,0,0-2.48-.66,9.65,9.65,0,0,0-5.06,1.41c-.06.05-.12.11-.12.34a.36.36,0,0,0,.06.24h.19A9.43,9.43,0,0,1,68.3,50.52Z"/></svg>