<svg id="Layer_1" data-name="Layer 1" xmlns="http://www.w3.org/2000/svg" viewBox="0 0 119.06 119.06"><defs><style>.cls-1{fill:#454546;}</style></defs><title>Artboard 1 copy 2</title><path class="cls-1" d="M45.45,69a1.2,1.2,0,0,1-.5-.5,1.41,1.41,0,0,1-.2-.75,1.38,1.38,0,0,1,.29-.89.88.88,0,0,1,.73-.38,1,1,0,0,1,.48.12,10.16,10.16,0,0,0,4.91,1.25c2.92,0,4.37-1.17,4.37-3.5A2.11,2.11,0,0,0,55,62.81a3.89,3.89,0,0,0-1.38-1c-.55-.23-1.34-.51-2.35-.83A27.64,27.64,0,0,1,48,59.79,5.89,5.89,0,0,1,45.82,58a5.09,5.09,0,0,1-.9-3.16,6.59,6.59,0,0,1,.75-3.14,5.62,5.62,0,0,1,2.21-2.25,7,7,0,0,1,3.51-.83,11.93,11.93,0,0,1,5,1,1.2,1.2,0,0,1,.7,1.22,1.56,1.56,0,0,1-.28.88.84.84,0,0,1-.72.39,1,1,0,0,1-.4-.12,10.22,10.22,0,0,0-4-.82,5.24,5.24,0,0,0-3.21.91,3,3,0,0,0-1.24,2.55,2.65,2.65,0,0,0,.59,1.78,4,4,0,0,0,1.47,1.06,21.07,21.07,0,0,0,2.41.8,21.82,21.82,0,0,1,3.19,1.16,5.4,5.4,0,0,1,2.07,1.79,5.6,5.6,0,0,1,.86,3.28,5.91,5.91,0,0,1-.8,3,5.53,5.53,0,0,1-2.25,2.11,7.15,7.15,0,0,1-3.34.76A12.58,12.58,0,0,1,45.45,69Z"/><path class="cls-1" d="M51.39,71.32a13.35,13.35,0,0,1-6.28-1.54,2,2,0,0,1-.85-.84,2.44,2.44,0,0,1-.32-1.22,2.41,2.41,0,0,1,.47-1.47,1.7,1.7,0,0,1,2.19-.49,9.43,9.43,0,0,0,4.56,1.16c3.16,0,3.56-1.39,3.56-2.6a1.19,1.19,0,0,0-.32-.87,3.13,3.13,0,0,0-1.1-.76c-.53-.22-1.3-.5-2.29-.81a28,28,0,0,1-3.36-1.27,6.67,6.67,0,0,1-2.45-2,6.08,6.08,0,0,1-1.09-3.74A7.56,7.56,0,0,1,45,51.26a6.39,6.39,0,0,1,2.54-2.59,7.71,7.71,0,0,1,3.88-.94,12.69,12.69,0,0,1,5.27,1.07,2.07,2.07,0,0,1,1.21,2.05,2.4,2.4,0,0,1-.45,1.42,1.64,1.64,0,0,1-1.36.75,1.75,1.75,0,0,1-.73-.2,9.5,9.5,0,0,0-3.69-.74,4.52,4.52,0,0,0-2.76.76,2.05,2.05,0,0,0-.87,1.8,1.68,1.68,0,0,0,.36,1.16,3,3,0,0,0,1.18.84,18.1,18.1,0,0,0,2.31.77,23.56,23.56,0,0,1,3.31,1.2,6.33,6.33,0,0,1,2.39,2.06,6.58,6.58,0,0,1,1,3.84,6.86,6.86,0,0,1-.93,3.54,6.37,6.37,0,0,1-2.58,2.43A7.87,7.87,0,0,1,51.39,71.32Zm-5.62-4a.11.11,0,0,0-.11.05.51.51,0,0,0-.1.32.52.52,0,0,0,.07.27.36.36,0,0,0,.15.16h0a11.82,11.82,0,0,0,5.59,1.37,6.47,6.47,0,0,0,3-.67,4.72,4.72,0,0,0,1.91-1.79A4.89,4.89,0,0,0,57,64.51a4.67,4.67,0,0,0-.69-2.73,4.51,4.51,0,0,0-1.75-1.52,21.11,21.11,0,0,0-3.07-1.11,20,20,0,0,1-2.5-.84A4.86,4.86,0,0,1,47.19,57a3.58,3.58,0,0,1-.81-2.39,3.94,3.94,0,0,1,1.6-3.3,6.08,6.08,0,0,1,3.66-1.06,11.15,11.15,0,0,1,4.31.88l.16.07a.66.66,0,0,0,.13-.38c0-.3-.07-.34-.18-.38a11.2,11.2,0,0,0-4.67-.94,6.26,6.26,0,0,0-3.14.73,4.77,4.77,0,0,0-1.88,1.9,5.6,5.6,0,0,0-.64,2.69,4.19,4.19,0,0,0,.71,2.58A4.91,4.91,0,0,0,48.29,59a25,25,0,0,0,3.17,1.19c1,.34,1.84.62,2.42.86a4.82,4.82,0,0,1,1.66,1.16,3.06,3.06,0,0,1,.8,2.15c0,1.64-.67,4.39-5.18,4.39a11,11,0,0,1-5.27-1.33A.27.27,0,0,0,45.77,67.35Z"/><path class="cls-1" d="M64.77,69.76a1.39,1.39,0,0,1-.3-.91,1.44,1.44,0,0,1,.3-.93.93.93,0,0,1,.75-.38h3V52.15l-2.55,1.52a1.31,1.31,0,0,1-.57.18,1,1,0,0,1-.77-.36,1.45,1.45,0,0,1-.3-.94A1.34,1.34,0,0,1,65,51.3l3.39-2.15a1.28,1.28,0,0,1,.7-.22h.52a1,1,0,0,1,.85.43,1.53,1.53,0,0,1,.35,1V67.54h2.47a1,1,0,0,1,.77.38,1.45,1.45,0,0,1,.31.93,1.39,1.39,0,0,1-.31.91,1,1,0,0,1-.77.36H65.52A.94.94,0,0,1,64.77,69.76Z"/><path class="cls-1" d="M73.23,71H65.52a1.7,1.7,0,0,1-1.35-.66,2.35,2.35,0,0,1-.51-1.51,2.4,2.4,0,0,1,.5-1.52,1.67,1.67,0,0,1,1.36-.68h2.16v-13l-1.35.81a2.13,2.13,0,0,1-1,.29A1.75,1.75,0,0,1,64,54.09a2.39,2.39,0,0,1-.5-1.54,2.25,2.25,0,0,1,1.07-2l3.38-2.15A2.1,2.1,0,0,1,69,48h.52a1.84,1.84,0,0,1,1.45.71,2.55,2.55,0,0,1,.56,1.64V66.65h1.66a1.72,1.72,0,0,1,1.36.67,2.46,2.46,0,0,1,0,3.05A1.76,1.76,0,0,1,73.23,71Zm-7.71-2.58a.15.15,0,0,0-.14.07.49.49,0,0,0-.1.34.44.44,0,0,0,.09.3h0a.16.16,0,0,0,.15.07h7.71a.22.22,0,0,0,.18-.09.43.43,0,0,0,.09-.29.44.44,0,0,0-.11-.33.18.18,0,0,0-.16-.08H70v-18a.62.62,0,0,0-.14-.43.29.29,0,0,0-.25-.13H69a.57.57,0,0,0-.31.1l-3.38,2.15c-.17.1-.24.19-.24.47s.06.3.09.33,0,.07.17.07a1.47,1.47,0,0,0,.23-.09l3.7-2.21V68.44Z"/></svg>