<svg id="Layer_1" data-name="Layer 1" xmlns="http://www.w3.org/2000/svg" viewBox="0 0 119.06 119.06"><defs><style>.cls-1{fill:#454546;}</style></defs><title>Artboard 1 copy 3</title><path class="cls-1" d="M45.7,68.6a1.11,1.11,0,0,1-.48-.48,1.48,1.48,0,0,1-.19-.71,1.35,1.35,0,0,1,.28-.86.83.83,0,0,1,.71-.37.89.89,0,0,1,.45.12,9.74,9.74,0,0,0,4.73,1.19c2.8,0,4.2-1.11,4.2-3.35a2.08,2.08,0,0,0-.54-1.46,3.73,3.73,0,0,0-1.33-.92c-.53-.22-1.28-.49-2.26-.8a25.74,25.74,0,0,1-3.14-1.18,5.63,5.63,0,0,1-2.07-1.71,4.94,4.94,0,0,1-.86-3,6.35,6.35,0,0,1,.72-3A5.43,5.43,0,0,1,48,49.85a6.76,6.76,0,0,1,3.38-.8,11.48,11.48,0,0,1,4.77,1,1.15,1.15,0,0,1,.67,1.17,1.45,1.45,0,0,1-.26.85.83.83,0,0,1-.7.38.94.94,0,0,1-.38-.12,9.8,9.8,0,0,0-3.86-.79,5,5,0,0,0-3.09.88,2.87,2.87,0,0,0-1.19,2.45A2.52,2.52,0,0,0,48,56.54a4,4,0,0,0,1.41,1,19.51,19.51,0,0,0,2.32.77,21.38,21.38,0,0,1,3.06,1.11,5.09,5.09,0,0,1,2,1.72,5.37,5.37,0,0,1,.83,3.15,5.71,5.71,0,0,1-.77,2.94,5.27,5.27,0,0,1-2.16,2,6.78,6.78,0,0,1-3.21.73A12,12,0,0,1,45.7,68.6Z"/><path class="cls-1" d="M51.42,70.87a12.81,12.81,0,0,1-6.05-1.49,1.94,1.94,0,0,1-.81-.8,2.41,2.41,0,0,1-.31-1.17A2.32,2.32,0,0,1,44.71,66a1.63,1.63,0,0,1,2.1-.47,9.09,9.09,0,0,0,4.39,1.11c3,0,3.42-1.33,3.42-2.49a1.15,1.15,0,0,0-.31-.84,3,3,0,0,0-1.06-.73q-.77-.33-2.19-.78a27.37,27.37,0,0,1-3.24-1.22,6.35,6.35,0,0,1-2.35-2,5.76,5.76,0,0,1-1-3.59,7.24,7.24,0,0,1,.83-3.45,6.09,6.09,0,0,1,2.44-2.49,7.36,7.36,0,0,1,3.73-.9,12.16,12.16,0,0,1,5.07,1,2,2,0,0,1,1.15,2,2.34,2.34,0,0,1-.42,1.37,1.59,1.59,0,0,1-1.32.72,1.53,1.53,0,0,1-.69-.19,9.19,9.19,0,0,0-3.55-.72,4.44,4.44,0,0,0-2.66.73,2,2,0,0,0-.84,1.74,1.64,1.64,0,0,0,.35,1.11,3,3,0,0,0,1.13.81,20.29,20.29,0,0,0,2.23.75,21.46,21.46,0,0,1,3.18,1.15,5.91,5.91,0,0,1,2.29,2,6.26,6.26,0,0,1,1,3.68,6.56,6.56,0,0,1-.9,3.41A6.16,6.16,0,0,1,55,70.05,7.58,7.58,0,0,1,51.42,70.87ZM46,67c-.07,0-.08,0-.11.06a.46.46,0,0,0-.1.31.47.47,0,0,0,.07.25.36.36,0,0,0,.15.16h0a11.47,11.47,0,0,0,5.38,1.31,6.14,6.14,0,0,0,2.88-.64,4.52,4.52,0,0,0,1.84-1.73,4.68,4.68,0,0,0,.64-2.46,4.49,4.49,0,0,0-.66-2.62,4.41,4.41,0,0,0-1.69-1.46,21.06,21.06,0,0,0-3-1.07,19,19,0,0,1-2.4-.8,4.68,4.68,0,0,1-1.7-1.23,3.46,3.46,0,0,1-.78-2.3,3.77,3.77,0,0,1,1.54-3.17,5.78,5.78,0,0,1,3.52-1,10.68,10.68,0,0,1,4.14.84l.15.07a.62.62,0,0,0,.13-.37c0-.29-.07-.32-.17-.36a10.72,10.72,0,0,0-4.49-.91,6,6,0,0,0-3,.71,4.49,4.49,0,0,0-1.81,1.83A5.4,5.4,0,0,0,46,55a4,4,0,0,0,.68,2.48A4.68,4.68,0,0,0,48.43,59a24.43,24.43,0,0,0,3.06,1.15c1,.32,1.76.59,2.32.83a4.62,4.62,0,0,1,1.6,1.1,3,3,0,0,1,.77,2.08c0,1.57-.65,4.22-5,4.22a10.56,10.56,0,0,1-5.07-1.29A.23.23,0,0,0,46,67Z"/><path class="cls-1" d="M62.79,68.84a1.1,1.1,0,0,1-.45-.43,1.21,1.21,0,0,1-.17-.68,1.4,1.4,0,0,1,.27-.86.84.84,0,0,1,.69-.37,1,1,0,0,1,.45.12,8.67,8.67,0,0,0,3.82.85,6.18,6.18,0,0,0,3.16-.75,2.65,2.65,0,0,0,1.28-2.49c0-2.46-1.77-3.68-5.3-3.68h-.39a.89.89,0,0,1-.71-.37,1.31,1.31,0,0,1-.3-.86,1.33,1.33,0,0,1,.3-.86.9.9,0,0,1,.71-.36h.15A6.39,6.39,0,0,0,70,57.21a3,3,0,0,0,1.27-2.64,2.75,2.75,0,0,0-1-2.22,4.23,4.23,0,0,0-2.83-.82,7.42,7.42,0,0,0-3.72,1,1,1,0,0,1-.43.12.8.8,0,0,1-.63-.31,1.16,1.16,0,0,1-.26-.77,1.1,1.1,0,0,1,.48-1,8.65,8.65,0,0,1,4.75-1.49,6.15,6.15,0,0,1,4.27,1.37,5,5,0,0,1,1.51,3.88,5.35,5.35,0,0,1-.82,3.17,5.12,5.12,0,0,1-2.08,1.71A5,5,0,0,1,73,60.77,5.32,5.32,0,0,1,74,64.37a5.15,5.15,0,0,1-1.74,4.16A6.69,6.69,0,0,1,67.81,70,11.11,11.11,0,0,1,62.79,68.84Z"/><path class="cls-1" d="M67.81,70.87a11.84,11.84,0,0,1-5.34-1.25h0a1.83,1.83,0,0,1-.78-.73,2.18,2.18,0,0,1-.3-1.16,2.28,2.28,0,0,1,.46-1.42,1.57,1.57,0,0,1,2-.48,7.92,7.92,0,0,0,3.5.77A5.51,5.51,0,0,0,70.19,66a1.78,1.78,0,0,0,.87-1.73c0-.77,0-2.82-4.52-2.82h-.39a1.61,1.61,0,0,1-1.28-.65,2.29,2.29,0,0,1,0-2.88,1.62,1.62,0,0,1,1.28-.64h.15a5.73,5.73,0,0,0,3.25-.76,2.14,2.14,0,0,0,.91-1.91A1.87,1.87,0,0,0,69.8,53a3.61,3.61,0,0,0-2.35-.64,6.85,6.85,0,0,0-3.37.87,1.46,1.46,0,0,1-2-.36,2,2,0,0,1-.48-1.37,2,2,0,0,1,.85-1.73,9.45,9.45,0,0,1,5.16-1.61,6.87,6.87,0,0,1,4.77,1.57A5.85,5.85,0,0,1,74.2,54.3a5.56,5.56,0,0,1-1.94,4.75,6.49,6.49,0,0,1,1.25,1.12,6.15,6.15,0,0,1,1.29,4.2,6,6,0,0,1-2,4.84A7.42,7.42,0,0,1,67.81,70.87Zm-4.7-2.82a10.4,10.4,0,0,0,4.7,1.09,6,6,0,0,0,4-1.29,4.26,4.26,0,0,0,1.43-3.48,4.5,4.5,0,0,0-.84-3A4.27,4.27,0,0,0,70.33,60L68,59.37l2.23-1A4.32,4.32,0,0,0,72,56.93a4.52,4.52,0,0,0,.65-2.63,4.1,4.1,0,0,0-1.22-3.21,5.47,5.47,0,0,0-3.78-1.18,8,8,0,0,0-4.36,1.37c-.05,0-.09.07-.09.25s0,.16.05.18.09,0,.17,0a8.15,8.15,0,0,1,4-1,5,5,0,0,1,3.31,1A3.68,3.68,0,0,1,72,54.57a3.93,3.93,0,0,1-1.64,3.37,7,7,0,0,1-4.08,1h-.15s-.06,0-.13.08a.42.42,0,0,0-.1.28.39.39,0,0,0,.1.28c.07.09.1.09.13.09h.39c5,0,6.08,2.47,6.08,4.54a3.52,3.52,0,0,1-1.7,3.25,7,7,0,0,1-3.52.85,9.27,9.27,0,0,1-4.13-.92.44.44,0,0,0-.14,0,.52.52,0,0,0-.15.57A.31.31,0,0,0,63.11,68.05Z"/></svg>