<svg id="Layer_1" data-name="Layer 1" xmlns="http://www.w3.org/2000/svg" viewBox="0 0 119.06 119.06"><defs><style>.cls-1{fill:#444545;}</style></defs><title>Artboard 1</title><path class="cls-1" d="M43.94,70.76h0a3,3,0,0,0,.31,1.56c1.08,1.76,2.71,1.79,4,1.77h8.5a2.3,2.3,0,0,0,1.39-.67l1-1.07a.64.64,0,0,1,.6,0l.82,1.06c.71.81,1.3.69,1.3.69h9a4.07,4.07,0,0,0,4.21-3.74V48.7h0a6.8,6.8,0,0,0-.26-1.3A4.35,4.35,0,0,0,71.13,45h-8.6a2.78,2.78,0,0,0-1.65.5l-1.2,1.07c-.17.09-.22.14-.45,0l-1.21-1A3.89,3.89,0,0,0,56.26,45h-8.8c-1.83,0-3.6,2.16-3.52,4v2.21h0v11.2h0ZM70.58,63.3h0v6a.16.16,0,0,1-.15.16h-7.7l0,0L60.54,68.3a2.13,2.13,0,0,0-2.1,0l-1.89,1.13,0,0H51.07c-.53,0-.56-.4,0-.75L70.58,54.31Zm-22.12-.88h0V56.53h0v-7a.12.12,0,0,1,.12-.12h7.64l.05,0,1.83,1A2.93,2.93,0,0,0,61,50.32l1.53-.88,0,0h5.57a.56.56,0,0,1,.33,1l-20,14.93Z"/></svg>