<svg id="Warstwa_1" data-name="Warstwa 1" xmlns="http://www.w3.org/2000/svg" xmlns:xlink="http://www.w3.org/1999/xlink" viewBox="0 0 70 70"><defs><style>.cls-1{fill:url(#Gradient_bez_nazwy_13);}</style><linearGradient id="Gradient_bez_nazwy_13" x1="35" y1="8.45" x2="35" y2="61.55" gradientUnits="userSpaceOnUse"><stop offset="0" stop-color="#0090ff"/><stop offset="1" stop-color="#7c00ff"/></linearGradient></defs><title>Obszar roboczy 1</title><path class="cls-1" d="M39.37,41.34V13a4.56,4.56,0,0,0-9.12,0V41.34a10.62,10.62,0,1,0,9.12,0Zm5.06,9.59a9.62,9.62,0,1,1-13.48-8.81l.3-.13V13a3.56,3.56,0,0,1,7.12,0V42l.3.13A9.63,9.63,0,0,1,44.43,50.93Zm-2.62-34a.5.5,0,0,1,.5-.5h3a.5.5,0,0,1,0,1h-3A.5.5,0,0,1,41.81,16.93Zm4,4a.5.5,0,0,1-.5.5h-3a.5.5,0,0,1,0-1h3A.5.5,0,0,1,45.81,20.93Zm0,4a.5.5,0,0,1-.5.5h-3a.5.5,0,0,1,0-1h3A.5.5,0,0,1,45.81,24.93Zm0,4a.5.5,0,0,1-.5.5h-3a.5.5,0,0,1,0-1h3A.5.5,0,0,1,45.81,28.93Zm0,8a.5.5,0,0,1-.5.5h-3a.5.5,0,0,1,0-1h3A.5.5,0,0,1,45.81,36.93Zm0-4a.5.5,0,0,1-.5.5h-3a.5.5,0,0,1,0-1h3A.5.5,0,0,1,45.81,32.93ZM35.31,44.84V22.58a.5.5,0,1,0-1,0V44.84h0a6.25,6.25,0,1,0,1,0Zm4.75,6.23a5.25,5.25,0,1,1-5.25-5.25A5.26,5.26,0,0,1,40.06,51.07Z"/></svg>