<svg id="Warstwa_1" data-name="Warstwa 1" xmlns="http://www.w3.org/2000/svg" xmlns:xlink="http://www.w3.org/1999/xlink" viewBox="0 0 70 70"><defs><style>.cls-1{fill:url(#Gradient_bez_nazwy_13);}</style><linearGradient id="Gradient_bez_nazwy_13" x1="35" y1="14.5" x2="35" y2="55.5" gradientUnits="userSpaceOnUse"><stop offset="0" stop-color="#0090ff"/><stop offset="1" stop-color="#7c00ff"/></linearGradient></defs><title>Obszar roboczy 1 kopia 5</title><path class="cls-1" d="M62.93,47.25a15.64,15.64,0,0,0-9.49-7.08A15.37,15.37,0,0,0,54.83,28a.5.5,0,0,0-.33-.33A15.22,15.22,0,0,0,44,28.22v0L44,28a18.77,18.77,0,0,0-8.74-13.47.5.5,0,0,0-.51,0A18.78,18.78,0,0,0,26,28.12h0v.1h0l-.12,1h0v.1c-.06.63-.09,1.26-.09,1.9a18.12,18.12,0,0,0,7.8,15.26h0l0,0,.15.11-.39.08-.3.06L30.72,47a15.43,15.43,0,0,1-11-4.26,13.33,13.33,0,0,1-2-2.53,14.4,14.4,0,0,1-1.67-11.66,14.24,14.24,0,0,1,9.8.7c0-.35.07-.69.12-1a15.21,15.21,0,0,0-10.47-.55.5.5,0,0,0-.33.33,15.37,15.37,0,0,0,1.39,12.17,15.64,15.64,0,0,0-9.49,7.08.5.5,0,0,0,0,.5A16.24,16.24,0,0,0,21.25,55.5,16.74,16.74,0,0,0,35,47.81,16.75,16.75,0,0,0,48.75,55.5a16.24,16.24,0,0,0,14.18-7.75A.5.5,0,0,0,62.93,47.25Zm-9-18.71A14.4,14.4,0,0,1,52.28,40.2a13.38,13.38,0,0,1-2,2.54,15.59,15.59,0,0,1-14,3.91h0a18.12,18.12,0,0,0,8-15.4c0-.61,0-1.21-.09-1.81v-.15h0a.37.37,0,0,0,0,0A14.24,14.24,0,0,1,53.95,28.54Zm-32.7,26a15.29,15.29,0,0,1-13.17-7,14.73,14.73,0,0,1,9-6.45A14.22,14.22,0,0,0,19,43.44a16.63,16.63,0,0,0,14.86,4.2A15.7,15.7,0,0,1,21.25,54.5Zm13.47-8.41a17.14,17.14,0,0,1-8-14.84A18.24,18.24,0,0,1,35,15.58a18.24,18.24,0,0,1,8.25,15.67,17.14,17.14,0,0,1-8.25,15Zm14,8.41A15.7,15.7,0,0,1,36.1,47.64a16,16,0,0,0,3.36.35,16.43,16.43,0,0,0,11.49-4.55,14.21,14.21,0,0,0,2-2.4,14.73,14.73,0,0,1,9,6.45A15.29,15.29,0,0,1,48.75,54.5Z"/></svg>