<svg id="Warstwa_1" data-name="Warstwa 1" xmlns="http://www.w3.org/2000/svg" xmlns:xlink="http://www.w3.org/1999/xlink" viewBox="0 0 70 70"><defs><style>.cls-1{fill:url(#Gradient_bez_nazwy_13);}</style><linearGradient id="Gradient_bez_nazwy_13" x1="35" y1="11.2" x2="35" y2="58.8" gradientUnits="userSpaceOnUse"><stop offset="0" stop-color="#0090ff"/><stop offset="1" stop-color="#7c00ff"/></linearGradient></defs><title>Obszar roboczy 1 kopia 7</title><path class="cls-1" d="M35,58.8a3.57,3.57,0,0,1-3.53-3.11H29.08a2,2,0,0,1-1.33-3.56,2,2,0,0,1,0-3,2,2,0,0,1,.47-3.36,1.82,1.82,0,0,1-.27-1c0-2.5-2.26-8.62-4.47-12.14A14.43,14.43,0,0,1,22.91,18,13.3,13.3,0,0,1,35,11.2,13.3,13.3,0,0,1,47.09,18a14.43,14.43,0,0,1-.57,14.66h0c-2.21,3.51-4.47,9.63-4.47,12.14a1.82,1.82,0,0,1-.27,1,2,2,0,0,1,.47,3.36,2,2,0,0,1,0,3,2,2,0,0,1-1.33,3.56H38.53A3.57,3.57,0,0,1,35,58.8Zm-2.51-3.06a2.56,2.56,0,0,0,5,0Zm-3.41-3.11a1,1,0,1,0,0,2.06H40.92a1,1,0,1,0,0-2.06Zm-.14-3a1,1,0,0,0,.14,2H40.92a1,1,0,0,0,.14-2H28.94Zm.14-1h12a1,1,0,0,0-.14-2H29.08a1,1,0,0,0-.14,2Zm.33-3H40.59a.89.89,0,0,0,.46-.77c0-3,2.53-9.35,4.62-12.67h0a13.43,13.43,0,0,0,.54-13.64A12.33,12.33,0,0,0,35,12.2a12.33,12.33,0,0,0-11.22,6.25,13.43,13.43,0,0,0,.54,13.64c2.09,3.32,4.62,9.71,4.62,12.67A.89.89,0,0,0,29.41,45.53Z"/></svg>