<svg id="Warstwa_1" data-name="Warstwa 1" xmlns="http://www.w3.org/2000/svg" xmlns:xlink="http://www.w3.org/1999/xlink" viewBox="0 0 70 70"><defs><style>.cls-1{fill:url(#Gradient_bez_nazwy_13);}</style><linearGradient id="Gradient_bez_nazwy_13" x1="35.01" y1="9.13" x2="34.99" y2="61.63" gradientUnits="userSpaceOnUse"><stop offset="0" stop-color="#0090ff"/><stop offset="1" stop-color="#7c00ff"/></linearGradient></defs><title>Obszar roboczy 1 kopia</title><path class="cls-1" d="M29.89,40.5a1.12,1.12,0,0,1-1.1-1.3l.87-5a.11.11,0,0,0,0-.1L26,30.47a1.11,1.11,0,0,1,.62-1.9l5.07-.74a.11.11,0,0,0,.08-.06L34,23.18a1.11,1.11,0,0,1,2,0l2.27,4.59a.11.11,0,0,0,.08.06l5.07.74a1.11,1.11,0,0,1,.62,1.9L40.37,34a.11.11,0,0,0,0,.1l.87,5a1.11,1.11,0,0,1-1.62,1.17L35.05,38a.11.11,0,0,0-.11,0l-4.53,2.38A1.11,1.11,0,0,1,29.89,40.5ZM35,37a1.1,1.1,0,0,1,.52.13l4.53,2.38a.1.1,0,0,0,.12,0,.1.1,0,0,0,0-.11l-.87-5a1.11,1.11,0,0,1,.32-1l3.67-3.58a.11.11,0,0,0-.06-.19l-5.07-.74a1.11,1.11,0,0,1-.84-.61L35.1,23.63a.11.11,0,0,0-.2,0l-2.27,4.59a1.11,1.11,0,0,1-.84.61l-5.07.74a.11.11,0,0,0-.06.19l3.67,3.58a1.12,1.12,0,0,1,.32,1l-.87,5a.1.1,0,0,0,0,.11.1.1,0,0,0,.12,0l4.53-2.38A1.1,1.1,0,0,1,35,37ZM35,61.5a.5.5,0,0,1-.25-.07c-.8-.47-19.5-11.63-19.5-21.38V16.25a.5.5,0,0,1,.17-.38C15.77,15.57,24,8.5,35,8.5s19.23,7.07,19.58,7.37a.5.5,0,0,1,.17.38V40.05c0,9.75-18.7,20.91-19.5,21.38A.5.5,0,0,1,35,61.5Zm-18.75-45V40.05c0,8.59,16.49,19,18.75,20.36C37.26,59,53.75,48.65,53.75,40.05V16.48c-1.23-1-9-7-18.75-7S17.48,15.47,16.25,16.48Z"/></svg>