<svg id="Warstwa_1" data-name="Warstwa 1" xmlns="http://www.w3.org/2000/svg" xmlns:xlink="http://www.w3.org/1999/xlink" viewBox="0 0 70 70"><defs><style>.cls-1{fill:url(#Gradient_bez_nazwy_13);}</style><linearGradient id="Gradient_bez_nazwy_13" x1="35" y1="10.45" x2="35" y2="59.55" gradientUnits="userSpaceOnUse"><stop offset="0" stop-color="#0090ff"/><stop offset="1" stop-color="#7c00ff"/></linearGradient></defs><title>Obszar roboczy 1 kopia 4</title><path class="cls-1" d="M18.83,59.55a6.59,6.59,0,0,1-4.26-1.39,4.43,4.43,0,0,1-1.63-3.45c0-3.25,3.33-6.5,7.41-7.25a7.24,7.24,0,0,1,6,1.23,4.7,4.7,0,0,1,.63.63v-27A1.49,1.49,0,0,1,27.9,21L55,10.55a1.48,1.48,0,0,1,2,1.38V44c0,3.25-3.33,6.5-7.41,7.25a7.25,7.25,0,0,1-6-1.23A4.43,4.43,0,0,1,42,46.55c0-3.25,3.33-6.5,7.41-7.25h0a7.24,7.24,0,0,1,6,1.23,4.71,4.71,0,0,1,.63.63V20.08L28,30.67V52.14c0,3.25-3.33,6.5-7.41,7.25A9.52,9.52,0,0,1,18.83,59.55ZM22.07,48.3a8.49,8.49,0,0,0-1.53.14c-3.64.67-6.59,3.48-6.59,6.27a3.4,3.4,0,0,0,1.27,2.68,6.25,6.25,0,0,0,5.14,1C24,57.74,27,54.92,27,52.14a3.4,3.4,0,0,0-1.27-2.68A5.59,5.59,0,0,0,22.07,48.3Zm27.57-8C46,40.94,43,43.76,43,46.55a3.4,3.4,0,0,0,1.27,2.68,6.25,6.25,0,0,0,5.14,1c3.64-.67,6.59-3.48,6.59-6.27a3.4,3.4,0,0,0-1.27-2.68,6.25,6.25,0,0,0-5.14-1Zm5.94-28.83a.49.49,0,0,0-.17,0L28.26,21.9a.48.48,0,0,0-.31.45V29.6L56.05,19V11.93a.48.48,0,0,0-.48-.48Z"/></svg>