<svg id="Warstwa_1" data-name="Warstwa 1" xmlns="http://www.w3.org/2000/svg" xmlns:xlink="http://www.w3.org/1999/xlink" viewBox="0 0 70 70"><defs><style>.cls-1{fill:url(#Gradient_bez_nazwy_13);}</style><linearGradient id="Gradient_bez_nazwy_13" x1="35" y1="8.13" x2="35" y2="61.87" gradientUnits="userSpaceOnUse"><stop offset="0" stop-color="#0090ff"/><stop offset="1" stop-color="#7c00ff"/></linearGradient></defs><title>Obszar roboczy 1 kopia 3</title><path class="cls-1" d="M48.76,45.82H21.24a.5.5,0,0,1-.5-.5V31.56a14.26,14.26,0,1,1,28.52,0V45.32A.5.5,0,0,1,48.76,45.82Zm-27-1H48.26V31.56a13.26,13.26,0,1,0-26.52,0Zm4.59-13.26A8.68,8.68,0,0,1,35,22.89a.5.5,0,0,0,0-1,9.68,9.68,0,0,0-9.67,9.67.5.5,0,0,0,1,0ZM35.5,13.22V8.63a.5.5,0,1,0-1,0v4.59a.5.5,0,0,0,1,0ZM58.43,33.85a.5.5,0,0,0-.5-.5H53.34a.5.5,0,0,0,0,1h4.59A.5.5,0,0,0,58.43,33.85Zm-41.27,0a.5.5,0,0,0-.5-.5H12.07a.5.5,0,0,0,0,1h4.59A.5.5,0,0,0,17.16,33.85ZM48.33,18.94l3.24-3.24a.5.5,0,0,0-.71-.71l-3.24,3.24a.5.5,0,1,0,.71.71ZM20.76,20.56a.5.5,0,0,0,0-.71l-3.24-3.24a.5.5,0,0,0-.71.71l3.24,3.24a.5.5,0,0,0,.71,0ZM53.34,52.7H16.66a.5.5,0,0,1-.5-.5V46.32a1.5,1.5,0,0,1,1.5-1.5H52.34a1.5,1.5,0,0,1,1.5,1.5V52.2A.5.5,0,0,1,53.34,52.7Zm-36.19-1H52.84V46.32a.5.5,0,0,0-.5-.5H17.66a.5.5,0,0,0-.5.5ZM57.93,61.87H12.07a.5.5,0,0,1-.5-.5V53.2a1.5,1.5,0,0,1,1.5-1.5H56.93a1.5,1.5,0,0,1,1.5,1.5v8.17A.5.5,0,0,1,57.93,61.87Zm-45.36-1H57.43V53.2a.5.5,0,0,0-.5-.5H13.07a.5.5,0,0,0-.5.5Z"/></svg>