<svg id="Warstwa_1" data-name="Warstwa 1" xmlns="http://www.w3.org/2000/svg" xmlns:xlink="http://www.w3.org/1999/xlink" viewBox="0 0 70 70"><defs><style>.cls-1{fill:url(#Gradient_bez_nazwy_13);}</style><linearGradient id="Gradient_bez_nazwy_13" x1="35" y1="13.17" x2="35" y2="56.83" gradientUnits="userSpaceOnUse"><stop offset="0" stop-color="#0090ff"/><stop offset="1" stop-color="#7c00ff"/></linearGradient></defs><title>Obszar roboczy 1 kopia 6</title><path class="cls-1" d="M37.66,40.72H32.34a3.5,3.5,0,1,1,0-7h5.32a3.5,3.5,0,0,1,0,7Zm-5.32-6a2.5,2.5,0,1,0,0,5h5.32a2.5,2.5,0,0,0,0-5Zm-3.75-1.38a.5.5,0,0,0,0-.71A7.53,7.53,0,0,0,24.67,31a.5.5,0,0,0-.15,1,6.5,6.5,0,0,1,3.36,1.41.5.5,0,0,0,.71,0Zm-12.27.83a12.29,12.29,0,0,1,3.9-1.94.5.5,0,1,0-.27-1,13.29,13.29,0,0,0-4.22,2.09.5.5,0,1,0,.59.81Zm-5.37,6.32a24.54,24.54,0,0,1,2.2-3.24.5.5,0,1,0-.78-.63A25.52,25.52,0,0,0,10.07,40a.5.5,0,1,0,.87.5Zm21.34-8.95a.5.5,0,0,0,.18-.69,13.29,13.29,0,0,0-1.89-2.47.5.5,0,1,0-.72.7,12.32,12.32,0,0,1,1.75,2.28.5.5,0,0,0,.69.18Zm-15-5.61A11.93,11.93,0,0,1,24,25.66a.5.5,0,1,0,.25-1,12.92,12.92,0,0,0-7.31.29.5.5,0,0,0,.16,1Zm-7.9,5.73a24.17,24.17,0,0,1,2-2.13.5.5,0,0,0-.68-.74A25.32,25.32,0,0,0,8.59,31a.5.5,0,0,0,.76.65ZM34.65,31a.5.5,0,0,0,.39-.59,20.94,20.94,0,0,0-.84-3,.5.5,0,0,0-.94.35,20,20,0,0,1,.8,2.81.5.5,0,0,0,.49.4Zm-3.33-7.27a.5.5,0,0,1-.4-.19,12.91,12.91,0,0,0-3.59-3.21.5.5,0,0,1,.51-.86,13.94,13.94,0,0,1,3.86,3.45.5.5,0,0,1-.39.81ZM17.89,18.95a.5.5,0,0,1-.11-1A14.59,14.59,0,0,1,23,17.75a.5.5,0,0,1-.14,1,13.67,13.67,0,0,0-4.82.2ZM11,22.28a21,21,0,0,1,2.45-1.6.5.5,0,1,0-.48-.87,22,22,0,0,0-2.57,1.68.5.5,0,0,0,.6.8ZM42.66,33.36A6.51,6.51,0,0,1,46,31.95a.5.5,0,0,0-.15-1A7.53,7.53,0,0,0,42,32.63a.5.5,0,0,0,.69.72Zm12.27.7a.5.5,0,0,0-.11-.7,13.29,13.29,0,0,0-4.22-2.09.5.5,0,1,0-.27,1,12.29,12.29,0,0,1,3.9,1.94.5.5,0,0,0,.29.1A.5.5,0,0,0,54.93,34.06Zm5.36,6.61a.5.5,0,0,0,.19-.68,25.59,25.59,0,0,0-2.29-3.38.5.5,0,1,0-.78.63,24.61,24.61,0,0,1,2.2,3.24.5.5,0,0,0,.68.19ZM38.94,31.36a12.3,12.3,0,0,1,1.75-2.28.5.5,0,0,0-.72-.7,13.32,13.32,0,0,0-1.89,2.47.5.5,0,0,0,.18.68.49.49,0,0,0,.25.07A.5.5,0,0,0,38.94,31.36Zm15-5.75a.5.5,0,0,0-.32-.63,12.92,12.92,0,0,0-7.31-.29.5.5,0,1,0,.25,1,11.93,11.93,0,0,1,6.75.27l.16,0A.5.5,0,0,0,53.92,25.62Zm8,6.1A.5.5,0,0,0,62,31a25.32,25.32,0,0,0-2.12-2.21.5.5,0,0,0-.68.74,24.17,24.17,0,0,1,2,2.13.5.5,0,0,0,.7.06Zm-25.42-1.1a20,20,0,0,1,.8-2.81.5.5,0,0,0-.94-.35,20.94,20.94,0,0,0-.84,3,.5.5,0,0,0,.39.59H36A.5.5,0,0,0,36.48,30.62Zm2.74-6.88a.5.5,0,0,1-.39-.81,13.94,13.94,0,0,1,3.86-3.45.5.5,0,0,1,.51.86,12.91,12.91,0,0,0-3.59,3.21A.5.5,0,0,1,39.22,23.74Zm13.43-4.79h-.11a13.67,13.67,0,0,0-4.82-.2.5.5,0,0,1-.14-1,14.66,14.66,0,0,1,5.17.21.5.5,0,0,1-.11,1Zm7.6,3.24a.5.5,0,0,0-.1-.7,22,22,0,0,0-2.57-1.68.5.5,0,0,0-.48.88,21,21,0,0,1,2.45,1.6.5.5,0,0,0,.7-.1ZM35.4,26.48a.5.5,0,0,0,.42-.57,23.29,23.29,0,0,0-.63-3,.5.5,0,1,0-1,.28,22.28,22.28,0,0,1,.6,2.87.5.5,0,0,0,.49.43Zm-1.74-6.12a.5.5,0,0,0,.18-.68,12.91,12.91,0,0,0-2.18-2.76.5.5,0,1,0-.7.72,12,12,0,0,1,2,2.54.5.5,0,0,0,.68.18Zm-4.59-4.91a.5.5,0,0,0-.14-.69,29.92,29.92,0,0,0-2.64-1.54.5.5,0,1,0-.46.89,28.82,28.82,0,0,1,2.55,1.48.49.49,0,0,0,.27.08A.5.5,0,0,0,29.07,15.45ZM35.83,26.1a22.32,22.32,0,0,1,.6-2.87.5.5,0,0,0-1-.28,23.29,23.29,0,0,0-.63,3,.5.5,0,0,0,.42.57h.07A.5.5,0,0,0,35.83,26.1Zm1.86-5.87a12,12,0,0,1,2-2.54A.5.5,0,1,0,39,17a12.94,12.94,0,0,0-2.18,2.76.5.5,0,1,0,.86.51Zm4.6-4.59a28.58,28.58,0,0,1,2.55-1.49.5.5,0,1,0-.46-.89,29.37,29.37,0,0,0-2.64,1.54.5.5,0,0,0,.28.92A.49.49,0,0,0,42.29,15.63Zm-3.77,41.2h-7a.5.5,0,0,1-.49-.39l-2.14-9.22a.49.49,0,0,1,0-.11c0-1.67,0-5.6,6.16-5.6s6.16,3.92,6.16,5.6a.49.49,0,0,1,0,.11L39,56.45A.5.5,0,0,1,38.52,56.83Zm-6.64-1h6.24l2-8.78c0-1.62-.06-4.54-5.16-4.54s-5.16,2.92-5.16,4.54Zm31.46.5a.5.5,0,0,0-.5-.5H7.16a.5.5,0,1,0,0,1H62.84A.5.5,0,0,0,63.34,56.33Z"/></svg>